<?xml version="1.0" standalone="no"?><!DOCTYPE svg PUBLIC "-//W3C//DTD SVG 1.1//EN" "http://www.w3.org/Graphics/SVG/1.1/DTD/svg11.dtd"><svg t="1562637695900" class="icon" viewBox="0 0 1024 1024" version="1.1" xmlns="http://www.w3.org/2000/svg" p-id="5206" xmlns:xlink="http://www.w3.org/1999/xlink" width="200" height="200"><defs><style type="text/css"></style></defs><path d="M819.1 770.7c6 6 9.4 14.7 9.4 23.9 0 9.3-3.4 18.1-9.5 24.1-6 6-14.7 9.4-24 9.4s-18-3.5-24-9.5L523.7 571.3 512 559.6l-11.7 11.6-247.4 247.5c-6 6-14.7 9.4-24 9.4s-18-3.5-24.1-9.5c-6-6-9.4-14.7-9.4-23.9 0-9.3 3.4-18.1 9.5-24.1l247.4-247.5 11.7-11.7-11.7-11.7-247.5-247.2c-6-6-9.4-14.7-9.4-23.9 0-9.3 3.4-18.1 9.5-24.1 6-6 14.7-9.4 24-9.4s18 3.4 24 9.5L500.4 452l11.7 11.7 11.7-11.7 247.4-247.4c6-6 14.7-9.4 24-9.4s18 3.4 24.1 9.5c6 6 9.4 14.7 9.4 23.9 0 9.3-3.4 18.1-9.5 24.1l-259 259 11.7 11.7 247.2 247.3z" p-id="5207" fill="#B3B3B3"></path></svg>