<?xml version="1.0" standalone="no"?><!DOCTYPE svg PUBLIC "-//W3C//DTD SVG 1.1//EN" "http://www.w3.org/Graphics/SVG/1.1/DTD/svg11.dtd"><svg t="1555575787343" class="icon" style="" viewBox="0 0 1024 1024" version="1.1" xmlns="http://www.w3.org/2000/svg" p-id="8097" xmlns:xlink="http://www.w3.org/1999/xlink" width="200" height="200"><defs><style type="text/css"></style></defs><path d="M338.9 194.7c79.7 0 144.2 64.6 144.2 144.2v131.5c0 7-5.7 12.7-12.7 12.7H338.9c-79.7 0-144.2-64.6-144.2-144.2 0-79.7 64.6-144.2 144.2-144.2z m0 0" fill="#3F6BF4" p-id="8098"></path><path d="M685.1 194.7c79.7 0 144.2 64.6 144.2 144.2 0 79.7-64.6 144.2-144.2 144.2H553.6c-7 0-12.7-5.7-12.7-12.7V338.9c0-79.7 64.6-144.2 144.2-144.2z m0 0M338.9 540.8h131.5c7 0 12.7 5.7 12.7 12.7V685c0 79.7-64.6 144.2-144.2 144.2-79.7 0-144.2-64.6-144.2-144.2s64.6-144.2 144.2-144.2z m0 0M553.6 540.8h131.5c79.7 0 144.2 64.6 144.2 144.2s-64.6 144.2-144.2 144.2S540.9 764.6 540.9 685V553.5c0-7 5.6-12.7 12.7-12.7z m0 0" fill="#B1C4FF" p-id="8099"></path></svg>