<?xml version="1.0" standalone="no"?><!DOCTYPE svg PUBLIC "-//W3C//DTD SVG 1.1//EN" "http://www.w3.org/Graphics/SVG/1.1/DTD/svg11.dtd"><svg t="1555903493086" class="icon" style="" viewBox="0 0 1024 1024" version="1.1" xmlns="http://www.w3.org/2000/svg" p-id="8494" xmlns:xlink="http://www.w3.org/1999/xlink" width="200" height="200"><defs><style type="text/css"></style></defs><path d="M328.1 221.6c0-10.7-8.7-19.3-19.3-19.3h-19.3c-10.7 0-19.3 8.7-19.3 19.3v52.5h58v-52.5z m-58 580c0 10.7 8.7 19.3 19.3 19.3h19.3c10.7 0 19.3-8.7 19.3-19.3V428.9h-58v372.7z m87-508.1h-116c-21.3 0-38.7 17.3-38.7 38.7v38.7c0 21.3 17.3 38.7 38.7 38.7h116c21.3 0 38.7-17.3 38.7-38.7v-38.7c0-21.4-17.3-38.7-38.7-38.7z m183.7-71.9c0-10.7-8.7-19.3-19.3-19.3h-19.4c-10.7 0-19.3 8.7-19.3 19.3v339.3h58V221.6z m-58.1 580c0 10.7 8.7 19.3 19.3 19.3h19.4c10.7 0 19.3-8.7 19.3-19.3v-86h-58v86z m87-221.3h-116c-21.3 0-38.7 17.3-38.7 38.7v38.7c0 21.3 17.3 38.7 38.7 38.7h116c21.3 0 38.7-17.3 38.7-38.7V619c0-21.4-17.3-38.7-38.7-38.7z m183.7-358.7c0-10.7-8.7-19.3-19.3-19.3h-19.3c-10.7 0-19.3 8.7-19.3 19.3v149.2h58V221.6z m-58 580c0 10.7 8.7 19.3 19.3 19.3H734c10.7 0 19.3-8.7 19.3-19.3V525.5h-58v276.1z m87-411.4h-116c-21.3 0-38.7 17.3-38.7 38.7v38.7c0 21.3 17.3 38.7 38.7 38.7h116c21.3 0 38.7-17.3 38.7-38.7v-38.7c0-21.4-17.3-38.7-38.7-38.7z m0 0" p-id="8495"></path></svg>