<?xml version="1.0" standalone="no"?><!DOCTYPE svg PUBLIC "-//W3C//DTD SVG 1.1//EN" "http://www.w3.org/Graphics/SVG/1.1/DTD/svg11.dtd"><svg t="1563441031677" class="icon" viewBox="0 0 1024 1024" version="1.1" xmlns="http://www.w3.org/2000/svg" p-id="38860" xmlns:xlink="http://www.w3.org/1999/xlink" width="200" height="200"><defs><style type="text/css"></style></defs><path d="M832.9 250.3c-8.8-10.7-23.3-17.4-37.9-17.4-51.7 0-103.5-10.8-153.9-32.2-40.7-17.3-69.3-36.6-83-46-4.9-3.3-7.1-4.8-8.6-5.4-9.6-9.2-23.8-14.4-39.2-14.4-10.6 0-25.5 9.8-30.9 20.2-25.6 30.5-74.5 47.7-111.1 56.9-58.6 14.7-112.8 16.2-133.3 16.2-15 0-25.3 5.1-30.7 15.1-14.3 9.9-19.5 24.6-19.5 35.1v252c0 60.1 42.5 148.5 108.2 225.1 33.2 38.7 69.9 71.3 106.1 94.2C440 875.5 479 888.6 515 888.6c38 0 78.1-13.3 119.2-39.4 35.7-22.8 71.7-55.4 104.1-94.3 61.2-73.6 102.3-160 102.3-215.2v-261c1.8-10-0.9-20.1-7.7-28.4z m-36.7 36.2v253.2c0 43.5-38.1 119.5-92.5 185-63.2 76-131.9 119.5-188.7 119.5-33.1 0-68-11.6-103.7-34.6-31.5-20.3-63.2-49.5-91.6-84.3-53.6-65.8-89.6-144.2-89.6-195V281.8c35.8-0.4 92.6-6.3 148.6-21.9 79.9-22.3 118.3-53.1 136.7-76.1 9.4 7.8 39 30.1 82.5 51.9 81.6 41 152.3 50.4 198.3 50.8z" fill="#ffffff" p-id="38861"></path><path d="M580.3 694.9H449.6c-16.1 0-26.8 10.8-26.8 26.8 0 16.1 10.8 26.8 26.8 26.8h130.7c16.1 0 26.8-10.8 26.8-26.8 0.1-16-10.7-26.8-26.8-26.8zM398.3 440.6c5 0 15.5 0 21.1-5.7 10.7-10.7 10.7-26.8 0.1-37.6l-42-46.6-0.1-0.1c-5.2-5.2-11.9-8-18.8-8s-13.6 2.9-18.8 8c-10.7 10.7-10.7 26.9 0 37.6l42 42c5.1 5.1 10.4 10.4 16.5 10.4zM627 610.9H403c-16.1 0-26.8 10.8-26.8 26.8 0 16.1 10.8 26.8 26.8 26.8h224c16.1 0 26.8-10.8 26.8-26.8s-10.7-26.8-26.8-26.8zM488.1 301.7v60.7c0 16.1 10.8 26.8 26.8 26.8 16.1 0 26.8-10.8 26.8-26.8v-60.7c0-5.6-2.8-12.3-7.3-17.5-5.3-6-12.2-9.4-19.6-9.4-16.2 0.1-26.7 16-26.7 26.9zM420.9 460.3c-25.9 26.5-40.1 61.3-40.1 98.1 0 16.1 10.8 26.8 26.8 26.8 16.1 0 26.8-10.8 26.8-26.8 0-46.2 36.9-85.2 80.5-85.2 44.6 0 85.2 40.6 85.2 85.2 0 16.1 10.8 26.8 26.8 26.8s26.8-10.8 26.8-26.8c0-76.6-62.3-138.9-138.9-138.9-34.4 0.1-68.7 14.9-93.9 40.8zM631.7 440.6c5 0 15.5 0 21.1-5.7l42-42c10.7-10.7 10.7-26.9 0-37.6-10.7-10.7-26.9-10.7-37.6 0l-42 42c-5.2 5.2-8 11.9-8 18.8s2.9 13.6 8 18.8c0.2 0.2 5.8 5.7 16.5 5.7z" fill="#ffffff" p-id="38862"></path></svg>