<?xml version="1.0" standalone="no"?><!DOCTYPE svg PUBLIC "-//W3C//DTD SVG 1.1//EN" "http://www.w3.org/Graphics/SVG/1.1/DTD/svg11.dtd"><svg t="1563441010299" class="icon" viewBox="0 0 1024 1024" version="1.1" xmlns="http://www.w3.org/2000/svg" p-id="38353" xmlns:xlink="http://www.w3.org/1999/xlink" width="200" height="200"><defs><style type="text/css"></style></defs><path d="M767.3 684.6c17.1 6 28.5 22.2 28.5 40.3V796H226.7v-71.1c0-18.1 11.4-34.2 28.5-40.3v-415c0-11.3 4.5-22.2 12.5-30.2s18.9-12.5 30.2-12.5h426.8c11.3 0 22.2 4.5 30.2 12.5s12.5 18.9 12.5 30.2v415zM312.1 340.8v341.5H369V340.8h-56.9z m113.8 0v341.5h56.9V340.8h-56.9z m113.8 0v341.5h56.9V340.8h-56.9z m113.8 0v341.5h56.9V340.8h-56.9z m0 0" p-id="38354" fill="#ffffff"></path></svg>