<?xml version="1.0" standalone="no"?><!DOCTYPE svg PUBLIC "-//W3C//DTD SVG 1.1//EN" "http://www.w3.org/Graphics/SVG/1.1/DTD/svg11.dtd"><svg t="1563440986522" class="icon" viewBox="0 0 1024 1024" version="1.1" xmlns="http://www.w3.org/2000/svg" p-id="37843" xmlns:xlink="http://www.w3.org/1999/xlink" width="200" height="200"><defs><style type="text/css"></style></defs><path d="M682.3 304.7c41.4 0 75-33.6 75-75s-33.6-75-75-75c-19.8 0.1-38.7 8.1-52.6 22.2-13.9 14.1-21.6 33.1-21.5 52.9-0.1 19.8 7.6 38.8 21.5 52.9 13.9 13.9 32.9 21.8 52.6 22z" p-id="37844" fill="#ffffff"></path><path d="M759.5 414l-1.3-0.6h-0.9c-9.9-4.4-18.9-8.1-27.8-11.3 3.6-16.8 6.1-33.9 7.6-50.9 1.2-8-2.3-16.1-8.9-20.8-6.7-4.7-15.7-5.2-22.8-1.2-7 3.9-11.3 11.6-11 19.6-0.7 13.5-2.1 27-4.3 40.3-29.8-7.9-60.4-13.9-91-17.6-19.9-24.2-41.6-47.2-64.7-68.4 10.1-9.1 20.7-17.8 31.6-25.8 4.9-3.4 8.3-8.6 9.3-14.5 0.9-5.9-0.6-12-4.2-16.7-3.2-4.6-8.2-7.7-13.8-8.6-5.6-1-11.4 0.4-16 3.7-14 10-27.5 20.9-40.2 32.5-49.7-39.2-96.5-60-135.6-60-17.9-0.4-35.3 4.6-50.3 14.4l-0.2 0.1c-19.6 13.8-32.8 35-39.2 62.9-6.3 27.2-5.9 60 1 97.7 0.1 4.1 1.1 7.9 2.1 11.6-3.5 1.3-6.9 2.6-10.5 3.9l-5.7 2.1-0.3 0.1c-33.6 14.3-60 31.4-78.5 50.9-19.2 20.1-29.1 41.8-29.6 64.4-0.5 22.7 9.4 46.2 28.6 67.8 19.1 21.6 47.3 41 81.4 56.2 9.2 4.1 18.7 8 29.1 11.7-1.8 10-3.3 20.3-4.5 31.5-8.2 78.2 10 133.9 51.1 156.8 12.8 7 27.2 10.7 41.7 10.7h1.4c42.8-3.8 83.8-21.9 115.5-51 7.5-6.1 15.2-12.8 23.5-20.4 49.8 39.1 96.7 59.8 135.9 59.8 17.9 0.4 35.2-4.6 50.1-14.5 39.2-26.1 52.8-82.9 38.5-159.8l-2.2-10.8c5.3-2 10.5-4 15.5-6.2 68.8-29.1 107.2-70.5 108.1-116.4 0.9-46.9-38.6-91.8-108.5-123.2z m-226.2-48.4c-5.7-0.3-11.7-0.7-17.6-0.8h-38.9c9.1-10.9 18.6-21.6 28.4-31.9 11.4 10.5 22.4 21.5 33 32.9-1.6 0-3.2-0.1-4.9-0.2z m292.4 169.2c0 13.6-7 27.4-20.7 40.9-13.9 13.6-34.6 26.5-59.9 37.3h-0.6l-11.3 4.4c-10-32.9-22.7-65.1-37.9-95.8 10.1-25.5 18.8-51.9 25.8-78.5 8.1 3 14.9 5.8 21.1 8.7h0.1c26.7 11.9 48.4 26 62.8 40.8 13.4 14 20.6 28.6 20.6 42.2zM490.4 693.6c5.8 0.3 11.7 0.7 17.6 0.8h39.2c-8.8 11.2-18.1 22.2-27.7 32.7-11.6-10.8-22.9-22.1-33.8-33.7 1.6 0 3.1 0.1 4.7 0.2zM389.5 416.5c-6.7 10.9-13.2 22.3-19.7 34.2-5.7 10.4-12 22.3-18.1 34.6-8.1-18.6-15.1-37.8-21.1-57.1 19.3-5 39.1-8.9 58.9-11.7zM376 619.6c4.1 6.2 8.3 12.4 12.6 18.6-15.2-2.9-30.3-6.4-45.2-10.6 3.6-13.6 7.7-27.2 12.3-40.6 6.9 11.7 13.6 22.4 20.3 32.6z m239.8-31.9c-11.4 20.9-23.7 41.3-36.6 60.7-18.8 1.4-37.5 2.1-55.6 2.1h-15.1c-21.8 0-43.5-1.8-62.1-3.6-11.8-15.3-23.9-32.3-36-50.7-10.9-16.6-24.7-40.2-36.2-62.2 10.8-24.4 21-45.3 31.3-63.9 10.9-19.9 23.3-40.4 36.9-61.1 17.2-1.3 35.8-1.9 55.5-1.9H513c21.7 0 43.4 1.8 62 3.6 8.8 12 18 24.5 26.8 37.5l9 14c12.1 19 24 39 36.3 61.3-11 24.7-21.3 45.8-31.3 64.2zM316.3 305.9c3.6-19.5 11.2-33.3 22.5-40.9 7.9-5.1 17.1-7.7 26.6-7.4h0.2c28 0 65.4 17 105.8 48-18.2 20.1-35.2 41.5-50.6 63.8-33.8 3.3-67.5 9.4-100.3 18.1-0.1-0.5-0.3-1-0.4-1.4-0.4-1.5-0.8-3-1-4.2v-0.2c-5.6-29.3-6.5-55.5-2.8-75.8z m14.9 387.7v-0.7c0-6.6 1.3-13.6 2.7-21.1 0.1-0.4 0.2-0.8 0.2-1.2 30 8.1 60.7 14.1 91.5 17.8 19.5 24.2 40.8 47.2 63.5 68.5-5.5 4.9-11.3 9.9-17.6 15-23 18.4-45.5 31.3-65 37.4-18.8 5.9-34.4 5.5-46.2-1.1-11.9-6.6-20.5-19.7-25.7-39-5.2-19.8-6.4-46-3.4-75.6zM634 642.2c6.6-10.9 13.1-22.2 19.5-33.8 1.5-2.8 3-5.5 4.6-8.3 4.6-8.3 9.3-16.8 13.7-25.4 7.7 18 14.5 36.5 20.3 55.2-19.1 5.2-38.5 9.3-58.1 12.3z m33.2-170.1c-6.6-11.2-13.5-22.2-20.5-32.8-4.1-6.2-8.3-12.4-12.6-18.6 15.3 2.8 30.5 6.3 45.5 10.3-3.6 13.2-7.7 27-12.4 41.1zM603 690.5c33.9-3.2 67.8-9.3 100.8-18 0.4 1.9 0.7 3.7 1 5.5v0.2c5.4 29.2 6.3 55.4 2.6 75.7-3.4 18.6-10.5 32-20.9 39.8h-0.5l-1.6 1.1c-7.9 5.2-17.1 7.7-26.6 7.5h-0.2c-27.9 0-65.3-16.9-105.7-47.8 18.3-20.2 35.5-41.7 51.1-64zM329.6 537.4c-10.3 25.5-19 51.8-26 78.4-8.7-3.3-16.2-6.5-22-9.1-26.7-11.9-48.4-26-62.8-40.8-13.6-13.9-20.8-28.5-20.8-42.2 0-13.5 6.9-27.1 20.6-40.2 14.1-13.6 34.8-26.1 61.3-37.2h0.1c3.1-1.4 6.5-2.7 9.9-4.1 10.7 32.6 24 64.6 39.7 95.2z" p-id="37845" fill="#ffffff"></path></svg>