<?xml version="1.0" standalone="no"?><!DOCTYPE svg PUBLIC "-//W3C//DTD SVG 1.1//EN" "http://www.w3.org/Graphics/SVG/1.1/DTD/svg11.dtd"><svg t="1563440996341" class="icon" viewBox="0 0 1024 1024" version="1.1" xmlns="http://www.w3.org/2000/svg" p-id="38012" xmlns:xlink="http://www.w3.org/1999/xlink" width="200" height="200"><defs><style type="text/css"></style></defs><path d="M512.4 162.8c49.6 0 94.6 20.2 127.1 52.7s52.6 77.5 52.6 127.2-20.1 94.6-52.7 127.2c-32.5 32.6-77.5 52.7-127.1 52.7-49.6 0-94.6-20.2-127.1-52.7s-52.6-77.5-52.6-127.2 20.1-94.7 52.6-127.2c32.6-32.6 77.6-52.7 127.2-52.7m143.2 386.6v78.4c24.5 5 40.2 17.5 49.3 28.6 24.8 30 25.4 71.2 24.1 90.4 3.7 4.4 6.3 9.6 7.6 15.4 0.5 2.2 0.8 4.4 0.8 6.8 0 18.8-14.6 34-32.7 34-10.1 0-19-4.8-25-12.3-4.8-5.9-7.7-13.3-7.7-21.6 0-10.9 5.2-20.1 12.8-26.3 0.8-14.9-0.8-40.8-13.7-56.3-8.4-10-20.9-14.9-38.3-14.9-19.8 0-33.5 5.3-41.9 16-12.4 15.8-11.9 42.4-10.2 54.5 8.2 6.2 13.9 15.7 13.9 27.1 0 18.8-14.6 34-32.7 34-18 0-32.7-15.2-32.7-34 0-8 3.1-15 7.5-20.9-2.2-16.5-4.8-58.5 19.8-89.9 13.2-16.8 31.5-27.1 54.5-31v-81.3H406.5c-0.7 0-1.4 0.1-2.1 0.1v145c18 10 30.5 29.6 30.5 52.3 0 32.9-25.6 59.6-57.2 59.6s-57.2-26.7-57.2-59.6c0-24.4 14.1-45.3 34.3-54.5V551.6C244.6 575.5 162 673.9 162 791.8V862h699v-70.2c0-122.3-89-223.5-205.4-242.4" p-id="38013" fill="#ffffff"></path></svg>