<?xml version="1.0" standalone="no"?><!DOCTYPE svg PUBLIC "-//W3C//DTD SVG 1.1//EN" "http://www.w3.org/Graphics/SVG/1.1/DTD/svg11.dtd"><svg t="1563441099226" class="icon" viewBox="0 0 1024 1024" version="1.1" xmlns="http://www.w3.org/2000/svg" p-id="39873" xmlns:xlink="http://www.w3.org/1999/xlink" width="200" height="200"><defs><style type="text/css"></style></defs><path d="M787.3 398.7c-7.4 0-14.2-1.9-20.4-4.9l-67.5 116.9 67.9 117.6c5.6-2.2 11.6-3.6 18-3.6 26.7 0 48.4 21.7 48.4 48.4s-21.7 48.4-48.4 48.4-48.4-19.8-48.4-46.5c0-0.5 0.2-1.2 0.2-1.2H606.3L535.8 794c13.8 8.5 23.5 23.1 23.5 40.5 0 26.8-21.7 48.4-48.4 48.4s-48.4-21.7-48.4-48.4c0-18.7 10.9-34.4 26.4-42.5l-69.4-118.3H282.6c0 0.4 0.2 0.8 0.2 1.2 0 26.7-21.7 46.5-48.4 46.5S186 699.7 186 673c0-26.8 21.7-48.4 48.4-48.4 8.3 0 15.7 2.6 22.5 6.3l69.4-120.2-68.6-118.8c-7 3.9-14.7 6.8-23.3 6.8-26.7 0-48.4-21.7-48.4-48.4s21.7-48.4 48.4-48.4c26.4 0 47.8 21.3 48.3 47.6h136.7L488 230.8c-15-8.2-25.5-23.6-25.5-41.9 0-26.8 21.7-48.4 48.4-48.4s48.4 21.7 48.4 48.4c0 17-9.3 31.3-22.6 39.9l69.7 120.6H739c0.5-26.3 21.8-47.6 48.3-47.6 26.7 0 48.4 21.7 48.4 48.4 0 26.8-21.7 48.5-48.4 48.5z m-276.4-18.1c-71.3 0-129.1 57.8-129.1 129.1s57.8 129.2 129.1 129.2S640 581.1 640 509.7c0-71.3-57.8-129.1-129.1-129.1z m0 232c-56.8 0-102.9-46.1-102.9-102.9 0-56.8 46.1-102.9 102.9-102.9 56.8 0 102.9 46 102.9 102.9 0 56.8-46.1 102.9-102.9 102.9z m0 0" fill="#ffffff" p-id="39874"></path></svg>