<?xml version="1.0" standalone="no"?><!DOCTYPE svg PUBLIC "-//W3C//DTD SVG 1.1//EN" "http://www.w3.org/Graphics/SVG/1.1/DTD/svg11.dtd"><svg t="1563441041916" class="icon" viewBox="0 0 1024 1024" version="1.1" xmlns="http://www.w3.org/2000/svg" p-id="39199" xmlns:xlink="http://www.w3.org/1999/xlink" width="200" height="200"><defs><style type="text/css"></style></defs><path d="M861.1 406.6L534.5 147.9c-13.1-10.4-31.4-10.4-44.5 0L163 406.6c-11.3 8.9-15.5 23.4-10.8 37 4.7 13.6 17 22.3 31.4 22.3H234v418.2h556.2V465.9h50.3c14.4 0 26.7-8.8 31.4-22.3 4.7-13.6 0.5-28.1-10.8-37z m-113 17.3v418.2H276V423.9h-67.2l293.3-232c6-4.8 14.4-4.8 20.4 0L811 420.5c0.9 0.7 0.8 1.7 0.6 2.2-0.2 0.5-0.6 1.3-1.8 1.3h-61.7z" fill="#ffffff" p-id="39200"></path><path d="M653.2 658.5c-17.6-25.4-41.7-45.3-69.9-58.1 27.1-21.3 43-53.7 43-88 0-62.1-51.3-112.6-114.3-112.6s-114.3 50.5-114.3 112.6c0 34.3 16 66.7 43 87.9C379.9 627.7 341 687 341 753.2v20h341.8v-20c0.1-33.9-10.1-66.7-29.6-94.7z m-141.1-33.4c64.6 0 119.4 46.2 129.3 108.2H382.8c9.9-62 64.7-108.2 129.3-108.2z m-74.4-112.6c0-40.1 33.3-72.6 74.3-72.6s74.3 32.6 74.3 72.6c0 40.1-33.3 72.6-74.3 72.6-40.9 0.1-74.3-32.5-74.3-72.6z" fill="#ffffff" p-id="39201"></path></svg>