<?xml version="1.0" standalone="no"?><!DOCTYPE svg PUBLIC "-//W3C//DTD SVG 1.1//EN" "http://www.w3.org/Graphics/SVG/1.1/DTD/svg11.dtd"><svg t="1563441046747" class="icon" viewBox="0 0 1024 1024" version="1.1" xmlns="http://www.w3.org/2000/svg" p-id="39368" xmlns:xlink="http://www.w3.org/1999/xlink" width="200" height="200"><defs><style type="text/css"></style></defs><path d="M759.9 435.6V382c0-14-8.6-23.6-22.7-23.6h-31c16-12.2 26.6-31.2 26.6-52.9 0-36.7-29.8-66.6-66.6-66.6-13.9 0-26.8 4.3-37.4 11.6-7.5-28.5-33.3-49.7-64.2-49.7-31.7 0-58.2 22.2-64.9 52-3.7-0.6-7.4-1.1-11.4-1.1-36.7 0-66.6 29.8-66.6 66.6 0 18.9 8 35.9 20.7 48l-50.2-21.1c-13-5.4-33.9 1.5-39.4 14.5l-20.7 50.8c-72.2 8.1-134.1 55.2-163.8 126.6-43.8 105 7.4 226.2 112.5 270 74 30.8 155.8 15.1 213-33.4-14.8-16.5-27.3-35-37-55.2-38.6 36.4-96.5 49-148.7 27.3-70.9-29.5-104.4-110.9-74.9-181.8S344.1 459.6 415 489.1c15.5 6.5 26 15.5 37.7 26.2 18.5-39.1 55-71.9 83.1-95v-5c0-6.1-3-11.2-9-13.7L486 384.4c0.8 0 1.6 0.2 2.4 0.2 31.7 0 58.2-22.2 64.9-51.9 3.7 0.6 7.4 1.1 11.4 1.1 13.9 0 26.8-4.3 37.4-11.6 3.8 14.6 12.4 27 24.1 35.9h-36c-14 0-26.2 9.5-26.2 23.6v55c-70.1 35.2-105.4 102.6-105.4 179.9C458.5 730.7 551 823 664.7 823c113.8 0 204.8-92.2 204.8-206.1-0.1-78.4-39.4-146.5-109.6-181.3z m-290.1-7.2c-5.6 13.4-20.9 19.7-34.2 14.1-13.4-5.6-19.7-20.9-14.1-34.2 5.6-13.4 20.9-19.7 34.2-14.1 13.3 5.6 19.7 20.9 14.1 34.2zM666 281c13.5 0 24.6 11 24.6 24.6 0 13.5-11 24.6-24.6 24.6-13.5 0-24.6-11-24.6-24.6 0-13.6 11.1-24.6 24.6-24.6z m-177.8 61.8c-13.5 0-24.6-11-24.6-24.6 0-13.5 11-24.6 24.6-24.6 13.5 0 24.6 11 24.6 24.6-0.1 13.5-11.1 24.6-24.6 24.6z m76.2-50.8c-13.5 0-24.6-11-24.6-24.6 0-13.5 11-24.6 24.6-24.6 13.5 0 24.6 11 24.6 24.6 0 13.5-11.1 24.6-24.6 24.6z m127.8 108.8c0 14.5-11.8 26.2-26.2 26.2-14.5 0-26.2-11.8-26.2-26.2 0-14.5 11.8-26.2 26.2-26.2 14.5 0 26.2 11.8 26.2 26.2z m-27.4 355.1c-76.7 0-139-62.2-139-139s62.2-139 139-139c76.7 0 139 62.2 139 139 0 76.7-62.3 139-139 139z m0 0" fill="#ffffff" p-id="39369"></path></svg>