<?xml version="1.0" standalone="no"?><!DOCTYPE svg PUBLIC "-//W3C//DTD SVG 1.1//EN" "http://www.w3.org/Graphics/SVG/1.1/DTD/svg11.dtd"><svg t="1563441020991" class="icon" viewBox="0 0 1024 1024" version="1.1" xmlns="http://www.w3.org/2000/svg" p-id="38521" xmlns:xlink="http://www.w3.org/1999/xlink" width="200" height="200"><defs><style type="text/css"></style></defs><path d="M512 805.9c-52.3 0-102.4-11.4-147.9-31.8L512 919.7 659.9 774c-45.5 20.5-95.5 31.9-147.9 31.9" fill="#ffffff" p-id="38522"></path><path d="M512 105c-188.9 0-341.3 152.5-341.3 341.3S323.1 787.7 512 787.7s341.3-152.5 341.3-341.3S700.9 105 512 105z m0 633.7c-160.8 0-292.3-131.5-292.3-292.3S351.2 154 512 154s292.3 131.6 292.3 292.3c0 160.8-131.5 292.4-292.3 292.4z" fill="#ffffff" p-id="38523"></path><path d="M443.8 495.7c-0.1-4.2-0.1-8.3-0.2-12.5-0.1-51.1 7.4-79.8 14.7-94.7v116.1l-14.5-8.9z m-7.9 49.5c-1.3 2.1-4.1 2.8-6.2 1.5l-15.9-9.8c-1-0.6-1.7-1.6-2-2.8-0.3-1.2-0.1-2.4 0.5-3.4l2.4-3.8c1.3-2.1 4.1-2.8 6.2-1.5l15.9 9.8c1 0.6 1.7 1.6 2 2.8 0.3 1.2 0.1 2.4-0.5 3.4l-2.4 3.8z m85.4-75.3c0 3.2-2.6 5.8-5.8 5.8-3.2 0-5.8-2.6-5.8-5.8 0-3.2 2.6-5.8 5.8-5.8 3.3 0 5.9 2.6 5.8 5.8z m0-37.1c0 3.2-2.6 5.8-5.8 5.8-3.2 0-5.8-2.6-5.8-5.8 0-3.2 2.6-5.8 5.8-5.8 3.2 0 5.8 2.6 5.8 5.8z m0-37c0 3.2-2.6 5.8-5.8 5.8-3.2 0-5.8-2.6-5.8-5.8 0-3.2 2.6-5.8 5.8-5.8 3.2 0 5.8 2.6 5.8 5.8zM458.4 661c0 14.4 11.7 26.1 26.1 26.1 6.9 0 13.6-2.7 18.5-7.6 4.9-4.9 7.7-11.5 7.7-18.4V514.6h9.8V661c0 14.4 11.7 26.1 26.1 26.1 6.9 0 13.6-2.7 18.5-7.6 4.9-4.9 7.7-11.5 7.7-18.4V388.5c1.2 2.6 2.5 5.5 3.8 8.9 6 16.5 11 43.5 11 85.7 0 11.6-0.4 24.4-1.2 38.4-0.3 4.6 1.4 9.2 4.6 12.6 3.2 3.4 7.7 5.3 12.3 5.3 8.9 0 16.3-7 16.9-15.9 0.8-13.4 1.2-26.9 1.3-40.4-0.1-63.6-10.3-98.9-24.2-120-6.9-10.5-15.1-17.3-22.6-21-7.5-3.8-14.1-4.5-17.8-4.5-1.3 0-2.4 0.1-3 0.2h-7.6l-4.8 37.7-20.6-24.8 11.7-12.9H499l11.7 12.9-20.6 24.8-4.8-37.7h-7.5c-1-0.1-2-0.2-3-0.2-3.8 0-10.3 0.7-17.8 4.5-3.4 1.7-7 4-10.4 7-8 6.9-15.8 17.5-21.8 32.7-5.4 13.6-9.7 30.9-12.2 53.6-1.5 13.8-2.4 29.6-2.4 47.7 0 11.9 0.4 24.8 1.2 38.7l-3.5 5.7-5.7 9.3c-0.6 1-0.8 2.2-0.5 3.4 0.3 1.2 1 2.2 2 2.8l1.9 1.2-47.9 76.8c-0.4 0.6-0.5 1.4-0.3 2.1 0.2 0.7 0.6 1.4 1.3 1.7 1.3 0.8 3.1 0.4 3.9-0.9l47.4-76.8 19.1 11.7c2.1 1.3 4.9 0.6 6.2-1.5l10.5-17 12.7-20.5V661z m58-422.5c25.2 0 45.6 6.7 45.6 14.9 0 1.2-0.5 2.4-1.3 3.6-4.9-6.5-22.8-11.4-44.3-11.4-21.4 0-39.4 4.8-44.3 11.4-0.8-1-1.3-2.3-1.3-3.6 0.1-8.2 20.5-14.9 45.6-14.9m0-24.2c5.2 0 9.3 4.3 9.3 9.6s-4.2 9.6-9.3 9.6c-5.1 0-9.3-4.3-9.3-9.6s4.2-9.6 9.3-9.6m46.7 67.6c0-6-1.1-11.7-3-17 1-1 1.7-2.3 2-3.8 5.4 0.2 9.6-0.7 11.4-3.7 6.2-10-9.7-51.9-57-51.9s-63.2 41.8-57 51.9c1.8 3 6 3.9 11.4 3.7 0.2 1.3 0.8 2.6 2 3.8-2 5.4-3 11.2-3 17 0 26.5 20.9 47.9 46.6 47.9 25.7 0.1 46.6-21.4 46.6-47.9" fill="#ffffff" p-id="38524"></path></svg>