<?xml version="1.0" standalone="no"?><!DOCTYPE svg PUBLIC "-//W3C//DTD SVG 1.1//EN" "http://www.w3.org/Graphics/SVG/1.1/DTD/svg11.dtd"><svg t="1563441103831" class="icon" viewBox="0 0 1024 1024" version="1.1" xmlns="http://www.w3.org/2000/svg" p-id="40041" xmlns:xlink="http://www.w3.org/1999/xlink" width="200" height="200"><defs><style type="text/css"></style></defs><path d="M482 807c-162.6 0-294.9-132.3-294.9-295 0-162.6 132.3-294.9 294.9-294.9 73.8-0.1 144.9 27.6 199.2 77.5 6.7 6.1 7.1 16.5 1 23.1-6.1 6.7-16.5 7.1-23.1 1-48.3-44.4-111.5-68.9-177.1-68.9-144.6 0-262.2 117.6-262.2 262.2 0 144.5 117.6 262.2 262.2 262.2 80.4 0 155.3-36.2 205.4-99.2 2.7-3.4 6.6-5.6 11-6.1 4.3-0.5 8.7 0.8 12.1 3.5 3.4 2.7 5.6 6.6 6.1 11 0.5 4.3-0.8 8.7-3.5 12.1C656.7 766.3 572.5 807 482 807z m0 0" fill="#ffffff" p-id="40042"></path><path d="M459.6 544.4l-85.3 39.4-34.4-17.6c-22.9-11.7-50.3-10.1-71.6 4.2l64.8 72c13.4 7.3 31.9 6.3 46.4 1.5L812 501.7c12.4-4.1 21.6-14.5 24.2-27.3 2.6-12.8-1.9-25.9-11.8-34.5-29.4-25.4-70.9-31.3-106.2-15l-130.8 60.4-106.8-66.5c-40.6-25.3-92.3-24.5-132.1 2.2l111.1 123.4z m0 0" fill="#ffffff" p-id="40043"></path></svg>