<?xml version="1.0" standalone="no"?><!DOCTYPE svg PUBLIC "-//W3C//DTD SVG 1.1//EN" "http://www.w3.org/Graphics/SVG/1.1/DTD/svg11.dtd"><svg t="1563441026457" class="icon" viewBox="0 0 1024 1024" version="1.1" xmlns="http://www.w3.org/2000/svg" p-id="38691" xmlns:xlink="http://www.w3.org/1999/xlink" width="200" height="200"><defs><style type="text/css"></style></defs><path d="M561 828.1c-15.8 2.4-32 3.6-48.5 3.6-177.4 0-321.2-143.8-321.2-321.2 0-177.4 143.8-321.2 321.2-321.2 177.4 0 321.2 143.8 321.2 321.2 0 8.9-0.4 17.9-1.1 26.8-14.6-21.9-34.3-39.9-57.5-52.5H794C783.3 366.1 699.1 268.6 587.2 238c35.5 50.3 60.4 135.5 65.6 234.3-30.3 9.1-57.2 26.8-77.4 51.1H409.9c1.4 76.4 15.2 147 38 198.7 20.8 47.4 45.5 71 64.6 71 18.4 0 41.8-21.7 62-65.3 8.6 10.4 18.4 19.8 29.3 27.8-4.9 9.5-10.4 18.7-16.6 27.5l1.5-0.4-27.7 45.4zM230.2 523.5c5.6 124.5 91.7 228.1 207.6 259.8-38.5-54.6-64.6-150.1-66.5-259.8H230.2z m0.8-38.6h140.6c3.6-104.2 29.2-194.5 66.1-246.9-111.8 30.6-196 128.2-206.7 246.9z m179.2 0h204.6c-2.6-71.4-16.2-137-37.7-185.9-20.8-47.4-45.5-71-64.6-71-19.2 0-43.8 23.7-64.6 71-21.5 48.9-35.1 114.5-37.7 185.9z" fill="#ffffff" p-id="38692"></path><path d="M737.3 723.5l64.2 101.9H615.3l63.5-100.8 58.5-1.1z m-75.4 76.2H755l-46.6-73.9-46.5 73.9z m123.5 0l8.6 13.7-6.6 12h-16.2L755 799.7h30.4z m-86.6-51.4c-67.4 0-122-54.6-122-122s54.6-122 122-122 122 54.6 122 122c0 67.3-54.6 122-122 122z m0-32.1c49.7 0 89.9-40.3 89.9-89.9 0-49.7-40.3-89.9-89.9-89.9-49.7 0-89.9 40.3-89.9 89.9 0 49.6 40.2 89.9 89.9 89.9z m0-12.9c-31.9 0-57.8-25.9-57.8-57.8s25.9-57.8 57.8-57.8 57.8 25.9 57.8 57.8-25.9 57.8-57.8 57.8z m0-25.7c11.5 0 22.1-6.1 27.8-16.1 5.7-9.9 5.7-22.2 0-32.1-5.7-9.9-16.3-16.1-27.8-16.1-17.7 0-32.1 14.4-32.1 32.1s14.3 32.2 32.1 32.2z m0-96.3c-7.1 0-12.8-5.8-12.8-12.8 0-7.1 5.8-12.8 12.8-12.8 7.1 0 12.8 5.8 12.8 12.8 0 7-5.7 12.8-12.8 12.8z m0 0" fill="#ffffff" p-id="38693"></path></svg>