<?xml version="1.0" standalone="no"?><!DOCTYPE svg PUBLIC "-//W3C//DTD SVG 1.1//EN" "http://www.w3.org/Graphics/SVG/1.1/DTD/svg11.dtd"><svg t="1563441036218" class="icon" viewBox="0 0 1024 1024" version="1.1" xmlns="http://www.w3.org/2000/svg" p-id="39029" xmlns:xlink="http://www.w3.org/1999/xlink" width="200" height="200"><defs><style type="text/css"></style></defs><path d="M512.1 250.9s-34.7 107-31.6 182.2c3.1 75.2 10.2 139.4 10.2 139.4h-4.2s-58.1-62.7-87.8-86.7c-29.7-24-97.8-79-127-85.7 0 0 6.3 53.9 42.2 87.8 35.9 33.8 76.9 75.6 130 109.7l-1 2.5s-46-1-76.3 4.2C336.3 609.5 244 629 244 629s47.6 30.9 106.1 30.9c58.5 0 91.5-10 91.5-10s-24.7 24.7-37.6 39.7c-13 15-31.3 49.1-31.3 49.1s45.5-2.1 70-24c24.4-21.9 61-64.4 61-64.4s1.7-2.9 1.9-0.6c0.2 2.3-2.3 123.5-2.3 123.5h16.5l-2.3-124.5s5 10.9 25.5 31.3c20.5 20.5 44.9 54.5 107 58.5 0 0-27.6-56-68.9-86.1 0 0-4.2-4.8 4.2-2.7 8.4 2.1 64.4 13 102.4 8.8 38-4.2 67.9-15.3 90.9-29.7 0 0-66.4-16.3-119.1-21.9-52.6-5.6-80.4-6.3-80.4-6.3l-1.7-2.1s48.5-34.9 73.1-54.9c24.7-20.1 81.1-64.1 97.8-132.7l1.7-9s-2.1-0.4-5.8 1.7c-3.8 2.1-14 2.7-60 35.9-46 33.2-102 81.9-147.7 133.3 0 0-2.7 3.6-2.7-3.8 0-7.3 10.9-78.4 7.7-143.7-3.3-65.6-16-122.4-29.4-174.4z m0 0" fill="#ffffff" p-id="39030"></path><path d="M879.2 511.9c0 203.2-164.8 368-368 368s-368-164.7-368-368 164.7-368 368-368 368 164.8 368 368z m-368-315.4c-174.2 0-315.4 141.2-315.4 315.4S337 827.4 511.2 827.4 826.6 686.2 826.6 512 685.4 196.5 511.2 196.5z m0 0" fill="#ffffff" p-id="39031"></path><path d="M755.7 757.6c-10.3 10.3-29.7 7.5-43.4-6.2L265.7 304.8c-13.7-13.7-16.5-33.1-6.2-43.4 10.3-10.3 29.7-7.5 43.4 6.2l446.6 446.6c13.6 13.7 16.4 33.1 6.2 43.4z m0 0" fill="#ffffff" p-id="39032"></path></svg>