<?xml version="1.0" standalone="no"?><!DOCTYPE svg PUBLIC "-//W3C//DTD SVG 1.1//EN" "http://www.w3.org/Graphics/SVG/1.1/DTD/svg11.dtd"><svg t="1563441002008" class="icon" viewBox="0 0 1024 1024" version="1.1" xmlns="http://www.w3.org/2000/svg" p-id="38180" xmlns:xlink="http://www.w3.org/1999/xlink" width="200" height="200"><defs><style type="text/css"></style></defs><path d="M649.6 817.8c-18.4 0.7-36.8-0.7-54.9-4l-70.2 46.5c-2.5 0.5-5 0.5-7.4 0-4 0-7.8-1.6-10.5-4.5s-4.1-6.8-3.8-10.8v-68.3C436 738 394 667.4 392 590.2c0-124.6 115.7-226 258.7-226 142.9 0 258.2 103.4 257.2 227-1.1 123.7-115.4 226.6-258.3 226.6z m0-414.9c-122.2 0-221.1 84.6-221.1 188.4 1.7 63.9 37.1 122.2 93 153.3l9.4 5.9c5.8 3.1 9.4 9.2 9.4 15.8v37.1l33.6-22.8 6.4-4.9c4.2-2.5 9.1-3.4 13.8-2.5h7.9c16.3 2.8 32.9 4.3 49.5 4.5 120.2 2 219.1-83.1 219.1-186.5S771.7 402.8 650 402.8h-0.4z m0 0M342.4 644.7c-171.6 30.2-201.8 122.7-201.8 139 8.4 62.3 256.2 67.8 296.7 67.8-12.9-35-20.1-72-21.3-109.3-25.2-31.8-42.2-69.4-49.5-109.3-7.1 4.8-14.7 8.8-22.8 11.9l-1.3-0.1zM434.9 325.2c-51.2-1.9-102.4 2.9-152.3 14.3v16.3c0 27.2 73.2 49.5 160.2 49.5h9.4c40.2-33 87.9-55.5 139-65.3-51.4-10.7-103.8-15.6-156.3-14.8z" p-id="38181" fill="#ffffff"></path><path d="M465.1 789.1c-3.6 21.3-9.2 42.1-16.8 62.3h40.1v-45.5c-8.1-5-15.8-10.4-23.2-16.3v-0.5zM434.4 421.2c-51.9 3.3-103.5-8.9-148.4-35.1v16.3c1.2 65.1 27.6 127.1 73.7 173.1 5.7-58.7 32.2-113.5 74.7-154.3z m16.8-176.6l-8.4-16.3-7.9 16.3h-16.3l10.9 13.8-4 21.3 17.3-9.9 16.3 7.9v-18.8L470 245l-18.8-0.4z m0 0" p-id="38182" fill="#ffffff"></path><path d="M606.5 328.7s18.8-29.7 29.7-49.5c4.5-10.6 8.2-21.5 10.9-32.6 0-8.4-5.4-13.9-13.4-19.3-27.2-10.9-90-38.1-114.2-49.5-7.7-4-16.1-6.4-24.7-6.9H391.4c-8.5 0.1-17 1.9-24.7 5.4-24.2 10.9-87 38.1-114.2 49.5-8.4 5.4-13.8 10.9-13.8 19.3 4 12 8.6 23.7 13.9 35.1 10.9 21.8 30.2 49.5 30.2 49.5 51.1-8.5 103-12 154.8-10.4 54.6-1 109.1 4.8 162.2 17.3h6.9v-7.9z m-122.6-87.1c0 13.8 5.4 10.9 5.4 30.2 0 19.3-49.5 38.1-49.5 38.1s-49.5-10.9-49.5-38.1c2.5-19.3 10.9-16.3 10.9-30.2 0-5.4-8.4-13.4-8.4-13.4l13.9-19.3c6.1 1.8 12.4 2.6 18.8 2.5 6.8-1.1 13.3-3.8 18.8-7.9 5.7 4.2 12.3 6.9 19.3 7.9 5.5-0.2 11-1 16.3-2.5l13.9 19.3c-4.6 3-7.7 7.9-8.4 13.4h-1.5z m0 0" p-id="38183" fill="#ffffff"></path><path d="M545.1 590.4m-37.2 0a37.2 37.2 0 1 0 74.4 0 37.2 37.2 0 1 0-74.4 0Z" p-id="38184" fill="#ffffff"></path><path d="M655.7 590.4m-37.2 0a37.2 37.2 0 1 0 74.4 0 37.2 37.2 0 1 0-74.4 0Z" p-id="38185" fill="#ffffff"></path><path d="M766.2 590.4m-37.2 0a37.2 37.2 0 1 0 74.4 0 37.2 37.2 0 1 0-74.4 0Z" p-id="38186" fill="#ffffff"></path></svg>