<?xml version="1.0" standalone="no"?><!DOCTYPE svg PUBLIC "-//W3C//DTD SVG 1.1//EN" "http://www.w3.org/Graphics/SVG/1.1/DTD/svg11.dtd"><svg t="1563441089936" class="icon" viewBox="0 0 1024 1024" version="1.1" xmlns="http://www.w3.org/2000/svg" p-id="39536" xmlns:xlink="http://www.w3.org/1999/xlink" width="200" height="200"><defs><style type="text/css"></style></defs><path d="M769.4 470.5c0 8.6-7 15.6-15.6 15.6H548.7c-8.6 0-15.6-7-15.6-15.6V265.3c0-8.6 7-15.6 15.6-15.6h205.2c8.6 0 15.6 7 15.6 15.6v205.2z m0 0M769.4 761.6c0 8.6-7 15.6-15.6 15.6H548.7c-8.6 0-15.6-7-15.6-15.6V556.4c0-8.6 7-15.6 15.6-15.6h205.2c8.6 0 15.6 7 15.6 15.6v205.2z m0 0M492.5 761.6c0 8.6-7 15.6-15.6 15.6H271.7c-8.6 0-15.6-7-15.6-15.6V556.4c0-8.6 7-15.6 15.6-15.6h205.2c8.6 0 15.6 7 15.6 15.6v205.2z m0 0M252.9 367.9c0 67.1 54.4 121.4 121.4 121.4 67.1 0 121.4-54.4 121.4-121.4 0-67.1-54.4-121.4-121.4-121.4-67.1 0-121.4 54.3-121.4 121.4z m0 0" fill="#ffffff" p-id="39537"></path></svg>