<?xml version="1.0" standalone="no"?><!DOCTYPE svg PUBLIC "-//W3C//DTD SVG 1.1//EN" "http://www.w3.org/Graphics/SVG/1.1/DTD/svg11.dtd"><svg t="1563343665030" class="icon" viewBox="0 0 1024 1024" version="1.1" xmlns="http://www.w3.org/2000/svg" p-id="37718" xmlns:xlink="http://www.w3.org/1999/xlink" width="200" height="200"><defs><style type="text/css"></style></defs><path d="M511.8 511.5m-327.2 0a327.2 327.2 0 1 0 654.4 0 327.2 327.2 0 1 0-654.4 0Z" fill="#EDD9D7" p-id="37719"></path><path d="M551.6 511.6l111.7-111.8c10.9-11 10.9-28.9 0-39.9-5.3-5.4-12.4-8.3-20-8.3-7.5 0-14.6 2.9-19.9 8.3L511.7 471.6 400.1 359.8c-5.3-5.4-12.4-8.3-20-8.3-7.5 0-14.6 2.9-20 8.3-10.9 11-10.9 28.9 0 39.9l111.7 111.8-111.6 111.9c-10.9 11-10.9 28.9 0 39.9 5.3 5.4 12.4 8.3 20 8.3 7.5 0 14.6-2.9 20-8.3l111.6-111.8 111.7 111.8c5.3 5.4 12.4 8.3 20 8.3s14.7-2.9 19.9-8.3c10.9-11 10.9-28.9 0-39.9L551.6 511.6z" fill="#E44A4C" p-id="37720"></path></svg>