<?xml version="1.0" standalone="no"?><!DOCTYPE svg PUBLIC "-//W3C//DTD SVG 1.1//EN" "http://www.w3.org/Graphics/SVG/1.1/DTD/svg11.dtd"><svg t="1563333374041" class="icon" viewBox="0 0 1024 1024" version="1.1" xmlns="http://www.w3.org/2000/svg" p-id="37204" xmlns:xlink="http://www.w3.org/1999/xlink" width="200" height="200"><defs><style type="text/css"></style></defs><path d="M885 420.9c-8.3-24.8-28.8-42.4-53.7-45.9l-172-25.1h-0.6c-1.8 0-7.5-2.5-10.4-8.3L573 187.5c-11.8-23.6-35.3-38.3-61.2-38.3-26 0-49.4 14.7-61.3 38.3l-75.7 155v1c0 5-6.5 6.4-10 6.4h-0.3L192.3 375h-0.1c-23.5 3.9-46 23.2-53.6 45.9-7.1 21.3-1.2 48.3 15.1 68.6l0.1 0.2 122 125.6 0.5 0.5 0.7 0.3c4.5 2.2 4.7 6.4 4.7 13.6l-28.6 168.1c-3.8 22.7 7.2 49.5 26.7 65.1l0.3 0.2c12 8 25.4 12 39 12 11.2 0 22.6-2.7 33.5-8.2l151.2-82.8 0.4-0.4c1.9-1.9 6.9-2.2 12.8 0.8l154.1 78.8c24.5 12.3 54.4 10.6 72.8-4.1 20.5-16.4 30.2-40.1 26.7-65L742 626.1c0.1-5.8 3-11.6 5.9-14.5l121.8-121.8 0.3-0.4c16.2-20.2 22.1-47.1 15-68.5zM690.2 634.4l28.7 168.4 0.1 0.6 0.3 0.6c2.5 5-0.2 13.1-5.2 15.6-5.9 3-11.7 3-17.5 0l-154-78.6c-20.3-12.1-43.4-10.8-65.3 3.6l-153.8 78.7c-6.1 3.1-13.9 5.4-15.6 1.9-3.4-6.8-6.6-13.1-6.7-19.2l28.6-168c3.8-22.5-3.4-45.4-19.1-61.1L189.3 455.5c-3.6-7.3-5.6-12.2-3.3-17 2.9-5.8 8.8-11.9 14-11.9h0.3l168.8-25.1c21.5-3.6 40.9-17.4 53.2-37.9l0.1-0.2 71.7-157.8c2.6-5.2 7.8-8.3 14-8.3s11.4 3.1 14 8.3l75.1 153.8c7.1 20.9 24.3 34.2 49.9 38.5L819.3 423h0.6c5.2 0 11.1 6.1 14 11.9 3.2 6.4 2.4 11.3-2.8 16.4l-121.7 122c-15.8 15.7-22.9 38.6-19.2 61.1z" p-id="37205" fill="#3f6bf4"></path><path d="M572.7 593.5H454.5c-13.1 0-25.9 12.8-25.9 25.9 0 13.1 12.8 25.9 25.9 25.9h118.2c13.1 0 25.9-12.8 25.9-25.9 0-13.1-12.8-25.9-25.9-25.9z" p-id="37206" fill="#3f6bf4"></path></svg>