<?xml version="1.0" standalone="no"?><!DOCTYPE svg PUBLIC "-//W3C//DTD SVG 1.1//EN" "http://www.w3.org/Graphics/SVG/1.1/DTD/svg11.dtd"><svg t="1563331453191" class="icon" viewBox="0 0 1024 1024" version="1.1" xmlns="http://www.w3.org/2000/svg" p-id="32113" xmlns:xlink="http://www.w3.org/1999/xlink" width="200" height="200"><defs><style type="text/css"></style></defs><path d="M875 249.2c-13.4-18.6-28.3-36.4-44.4-52.8-12.4-12.6-32.6-12.8-45.3-0.4-12.6 12.4-12.8 32.7-0.4 45.3 13.8 14.1 26.6 29.3 38.1 45.3 47.1 65.5 71.9 143 71.9 224 0 102.6-39.9 199.1-112.5 271.7C710 854.7 613.6 894.7 511 894.7c-102.6 0-199-40-271.5-112.5C166.9 709.6 127 613.1 127 510.5c0-81 24.9-158.4 71.9-224 11.5-16.1 24.4-31.4 38.3-45.5 12.4-12.6 12.2-32.9-0.4-45.3-12.6-12.4-32.9-12.2-45.3 0.4-16.2 16.5-31.2 34.3-44.7 53.1C92 325.7 63 416 63 510.5 63 571 74.8 629.7 98.2 685c22.6 53.4 54.9 101.3 96 142.5s89 73.5 142.4 96.1c55.3 23.4 113.9 35.2 174.4 35.2s119.1-11.9 174.4-35.2c53.4-22.6 101.3-54.9 142.4-96.1 41.1-41.2 73.4-89.1 96-142.5 23.4-55.3 35.2-114 35.2-174.5 0-94.5-29-184.8-84-261.3z" p-id="32114" fill="#3f6bf4"></path><path d="M512.5 491c17.7 0 32-14.3 32-32V94.8c0-17.7-14.3-32-32-32s-32 14.3-32 32V459c0 17.7 14.3 32 32 32z" p-id="32115" fill="#3f6bf4"></path></svg>