<?xml version="1.0" standalone="no"?><!DOCTYPE svg PUBLIC "-//W3C//DTD SVG 1.1//EN" "http://www.w3.org/Graphics/SVG/1.1/DTD/svg11.dtd"><svg t="1563331309894" class="icon" viewBox="0 0 1024 1024" version="1.1" xmlns="http://www.w3.org/2000/svg" p-id="27857" xmlns:xlink="http://www.w3.org/1999/xlink" width="200" height="200"><defs><style type="text/css"></style></defs><path d="M332.7 400.3c-29.3 0-53.1 24.7-53.1 55.1 0 30.4 23.8 55.1 53.1 55.1s53.1-24.7 53.1-55.1c0-30.4-23.7-55.1-53.1-55.1zM512.1 400.3c-29.3 0-53.1 24.7-53.1 55.1 0 30.4 23.8 55.1 53.1 55.1s53.1-24.7 53.1-55.1c0-30.4-23.8-55.1-53.1-55.1zM691.5 400.3c-29.3 0-53.1 24.7-53.1 55.1 0 30.4 23.8 55.1 53.1 55.1s53.1-24.7 53.1-55.1c0-30.4-23.8-55.1-53.1-55.1z" p-id="27858" fill="#3f6bf4"></path><path d="M779.2 170H243.4c-53.4 0-96.8 44.9-96.8 100.1v347.4c0 26.6 10.5 53.3 28.7 73.4 19 20.9 43.9 32.4 70.1 32.4h132.9c26.6 28.2 117.6 122.4 119.7 124.6 3.4 3.6 8.3 5.7 13.3 5.7s9.9-2.1 13.3-5.8c0.3-0.3 1.1-1.2 3.4-3.8 58.7-65.9 93.6-101.9 112.9-120.7h136.2c26.2 0 51.1-11.5 70.1-32.4 18.2-20.1 28.7-46.8 28.7-73.4V270.2C876 215 832.6 170 779.2 170zM206.3 270.2c0-21.4 16.7-38.8 37.2-38.8h535.8c20.5 0 37.2 17.4 37.2 38.8v347.9c-0.3 22.5-19.6 44.4-39.2 44.4h-137c-19 0-35.2 17.4-37 19.5L520 768.4c-4 4.2-10.6 4.2-14.7 0l-83.5-86.5-0.3-0.3c-2.1-2-21-19.1-39.1-19.1h-137c-19.8 0-39.2-22.3-39.2-44.9V270.2z" p-id="27859" fill="#3f6bf4"></path></svg>