<?xml version="1.0" standalone="no"?><!DOCTYPE svg PUBLIC "-//W3C//DTD SVG 1.1//EN" "http://www.w3.org/Graphics/SVG/1.1/DTD/svg11.dtd"><svg t="1563331348809" class="icon" viewBox="0 0 1024 1024" version="1.1" xmlns="http://www.w3.org/2000/svg" p-id="28026" xmlns:xlink="http://www.w3.org/1999/xlink" width="200" height="200"><defs><style type="text/css"></style></defs><path d="M513.1 553.9c0.2 0 0.7 0 1.1 0.1 0.8 0 1.6 0.1 2.4 0.1 0.3 0 0.6 0.1 0.9 0.1 1.2 0.5 2.4 0.6 3.7 0.5 1.2 0.3 2.6 0.6 4.1 0.6 5.5 0.8 10.9 2 17.1 3.8l0.3 0.1c9.6 2.2 20.1 5.5 32.1 9.9 0.7 0.3 1.3 0.6 1.8 0.8 0.5 0.2 0.9 0.4 1.4 0.7 0.9 0.4 1.6 0.7 2.2 1 0.5 0.2 1 0.4 1.4 0.6l0.4 0.2 0.5 0.2 0.1 0.1c0.4 0.2 1.1 0.5 2 0.8 0.1 0 0.1 0.1 0.2 0.1l0.5 0.2 0.5 0.2c0.5 0.2 0.8 0.3 1.3 0.6l0.2 0.1c5.4 2.5 10.9 5.1 16.3 8 4.3 2.5 9.4 3.9 14.5 3.9 10.4 0 19.8-5.3 25.1-14.1l0.1-0.2c3.9-6.9 4.8-14.7 2.7-22.6-1.7-7.2-6.4-13.3-13-17.1l-0.2-0.1c-14.2-7.6-29.1-14.2-44.3-19.6 13.7-9.4 26.2-20.5 36.6-32.7 28.7-34.2 44.6-77.3 44.6-121.4 0-1.3 0-3-0.3-4.8-0.8-42-16.2-82.1-44.5-116.3C598 205.6 559 183 518.1 175.9c-11.3-2-22.9-3.1-34.6-3.1-33 0-65.6 8.8-94.3 25.4-36.1 20.8-65.1 55.3-81.6 97.3v0.1c-15.1 40.1-15.1 86.6 0 127.7l0.1 0.2c14.4 36.5 39.1 67.8 70.3 89.4-22.4 7.9-43.7 18.4-63.8 31.2l-0.1 0.1c-42.7 28.6-78.5 66.7-103.5 110.2-26.7 46.7-40.8 100.2-40.8 154.9 0 15.9 12.9 28.8 28.8 28.8 7.8 0 15.4-3.2 20.8-8.7 5.4-5.5 8.2-12.8 8-20.5 0-5.2 0.3-10.6 0.6-16.3l0.1-1.1c0.4-2.1 0.5-4.2 0.5-5.6 0-0.3 0.1-0.9 0.2-1.4 0.1-0.9 0.3-2 0.3-3.2V776.6c0.1-0.5 0.1-1.2 0.2-2 1.4-11 3.8-22.9 7.3-36.4 0.6-1.9 1.2-3.8 1.9-5.8 1.2-3.6 2.4-7.3 3.3-11.2 0.9-1.6 1.4-3.1 1.7-4.3 0.1-0.3 0.2-0.6 0.3-0.8l1.3-2.7 0.2-0.5c0.2-0.5 0.4-0.9 0.6-1.4 0.5-1 1-2.2 1.3-3.5 0.1-0.3 0.2-0.5 0.4-0.9l0.2-0.5c5.5-12 11-22.4 16.4-31.1l0.1-0.2c2.4-4.1 5.4-8.8 9.1-13.8l4.7-6.5c0.5-0.5 1-1.1 1.5-1.8 0.7-0.8 1.9-2.2 2.8-3.6 8.3-9.8 15.8-18 23.5-25.7 3.8-3.5 8.2-7.5 12.4-11.1 0.8-0.6 1.4-1.1 2-1.6 0.5-0.4 1-0.8 1.4-1.2l0.4-0.3 0.4-0.4c0.8-0.8 1.6-1.6 2.5-2.3l0.4-0.3 0.8-0.8 0.4-0.3c0.4-0.3 0.7-0.4 1-0.6 0.5-0.3 1-0.6 1.6-1l0.4-0.3c8.5-6.5 17.9-12.5 29.4-18.8 4.1-2.2 8.3-4.4 13.7-7 0.4-0.2 0.7-0.3 1.1-0.5 2-0.9 4.3-1.8 6.4-3.1 0.2-0.1 0.5-0.2 0.7-0.3 0.9-0.3 1.7-0.6 2.1-0.9 0.4-0.2 0.8-0.3 1-0.5l0.5-0.2c11-4.3 21.3-7.8 31.3-10.6 9.8-2.8 20.5-5 31.7-6.7 0.9-0.1 1.6-0.2 2.1-0.4 0.6-0.1 1-0.2 1.4-0.3l0.9-0.1c0.5-0.1 1-0.2 1.7-0.2 0.8-0.1 1.8-0.2 2.9-0.4l0.7-0.1c1.2-0.2 1.8-0.4 2.4-0.4h0.6c1.4-0.1 2.7-0.2 4-0.4 2.7-0.3 5.3-0.5 7.9-0.5h0.6l0.6-0.1c1.8-0.3 3.7-0.5 5.1-0.5h5.9c7.9 0 15.9 1 25.1 2.2l3.1 0.4h0.6z m-83.4-77.6c-0.9-0.4-1.6-0.7-2.2-1-0.5-0.2-1-0.4-1.4-0.6l-0.2-0.1c-6.6-3-13-6.8-19-11.3-0.8-1.1-1.8-1.9-3.1-2.6-0.6-0.6-1.2-1-1.6-1.2-0.5-0.5-1-0.8-1.4-1.1-0.9-1.2-1.8-2-2.5-2.5l-0.3-0.3-0.2-0.2c-3.4-3.1-6.5-6.2-9.8-9.5-2.6-2.9-5-5.6-7.1-8.4l-0.1-0.1c-0.1-0.2-0.3-0.3-0.4-0.5v-0.4l-1.5-2c-0.9-1.2-1.7-2.3-2.5-3.6l-1.1-1.8-0.5-0.2c-2.5-3.8-4.5-7.3-5.9-10.4l-2.6-5.2c-0.3-1.2-0.8-2-1.1-2.5l-0.2-0.3-0.1-0.4-0.2-0.5c-3.4-8.1-5.8-16.2-7.4-24.9-0.1-1.7-0.5-3-0.8-3.9-0.1-0.2-0.2-0.5-0.2-0.7l-0.2-0.6-0.3-0.9c0-0.1-0.1-0.2-0.1-0.3V376c0-1.7-0.1-3.5-0.2-5.2-0.1-1.6-0.2-3.3-0.2-4.7v-0.7l-0.1-0.7c-0.1-0.6-0.1-1.5-0.1-2.5v-1-2.2c0-3.6 0-7.4 0.4-10.7 0.4-1.8 0.3-3.2 0.3-4.3v-2c1.1-2.4 1-4.7 0.9-5.8 1.4-7.3 3.7-15.3 6.7-23.6 0.2-0.2 0.3-0.5 0.4-0.7 0.5-0.7 0.9-1.5 1.3-2.5l3-5.6 0.2-0.5c0.9-2.5 2.6-5.3 4.3-8.1l0.6-1.1 1.1-1.6c0.8-1 1.5-2.1 2.1-3 0.5-0.8 0.9-1.5 1.4-2l0.7-0.9c0.9-1.2 2.1-2.7 3.1-4.3l0.2-0.3c0.4-0.4 1.1-1.1 1.7-2.1l4.4-5.2c5.6-5.9 11.3-11.2 16.8-15.9 0.6-0.4 1.3-0.8 2-1.6l0.2-0.2h0.1l2-1.6c0.6-0.4 1.3-0.9 2.1-1.5l0.9-0.6h0.2l1.8-1.2c3.3-2.2 7-4.2 10.9-6.3l6.2-3.3 2.7-1.3c2-0.9 4.3-1.6 6.6-2.4l1.8-0.6 4.8-1.7c1.9-0.7 4.1-1.2 6.4-1.7l3.9-0.9 1.1-0.2c1.8-0.1 3.5-0.5 5.1-0.9l0.5-0.2c0.2-0.1 0.4-0.1 0.6-0.2h0.1c1.2 0 2.1-0.3 2.8-0.6h0.2c0.2 0 0.3-0.1 0.5-0.1l1.1-0.1c4.8-0.3 9.3-0.6 14.3-0.6 2.7 0 5.6 0.2 8.6 0.5 1.1 0.1 2.3 0.2 3.4 0.3 1.5 0.4 2.9 0.6 4.8 0.6h1.2c0.3 0 0.9 0.1 1.3 0.2l2.7 0.3c1.4 0.3 2.8 0.6 4.3 1 2.8 0.6 5.7 1.2 8.9 2l1.4 0.4c3.6 1.1 7.1 2.2 10.5 3.5 0.7 0.3 1.5 0.7 2.6 1.1 2.1 0.9 4.1 1.7 5.9 2.8l0.5 0.2c6.8 3.3 14.4 7.9 21.9 13.4l0.7 0.5c0.6 0.6 1.2 0.9 1.5 1.2 0.5 0.5 1 0.8 1.4 1.1 0.9 1.2 1.8 2 2.5 2.5l0.3 0.3 0.3 0.2c3.5 3.2 6.7 6.4 9.8 9.5 2.6 2.9 5.6 6.3 8.2 9.4l0.2 0.3 0.3 0.3 0.2 0.2c0.3 0.4 0.8 1 1.7 1.7 0.7 1 1.4 1.9 2.1 3l1.1 1.8 0.5 0.2c2.5 3.8 4.5 7.3 5.9 10.4l2.5 5c0.1 0.7 0.3 1.3 0.6 2v2.8l1.9 1.4s0 0.1 0.1 0.1c3.4 8.6 6 16.8 7.3 23.6 0.1 1.8 0.4 3.2 0.7 4.4l0.2 0.7c0.2 0.6 0.2 0.8 0.2 1v4.8l0.4 1.1c0.7 2.1 0.6 5.4 0.6 9v2.9c0 4.3-0.3 8.7-0.6 13.4-0.1 0.6-0.3 1.8-0.3 3.1v0.6c0 0.4-0.1 0.8-0.2 1.1l-0.1 0.4c-0.4 1.4-0.7 3.1-0.8 5-1.1 6.2-3.1 13.1-6.7 23.1-0.7 1.1-1.2 2.3-1.6 3.8l-0.1 0.3c-0.1 0.3-0.2 0.5-0.3 0.8l-2.5 5-0.1 0.4c-0.9 2.5-2.6 5.4-4.3 8.1l-0.6 1-1.2 1.8-0.2 0.3c-1.1 1.8-2.4 3.6-3.7 5.5-0.7 0.9-1.4 1.9-2 2.9-0.5 0.5-1 1.2-1.6 2.2-0.4 0.4-1.1 1.1-1.7 2.2l-4.4 5.3c-2.7 3-5.6 5.9-8.6 8.6l-0.3 0.3c-1.3 1.3-2.8 2.5-4.3 3.7l-1.4 1.1c-2 1.5-3 2.4-3.9 3.1-5.2 4-11.4 7.9-19.7 12.2l-5 2.8c-1.2 0.3-2.3 0.9-3.4 1.7-1.4 0.6-3.1 1.1-4.8 1.6-1.1 0.3-2.3 0.7-3.5 1.1l-4.6 1.5-0.2 0.1c-1.8 0.7-3.9 1.1-6.2 1.6-1.3 0.3-2.7 0.6-4 1l-1.1 0.2c-2 0.1-3.8 0.6-5.3 1.1l-0.4 0.1c-0.2 0.1-0.5 0.2-0.7 0.2h-3.5c-3 0-5.6 0.2-8.2 0.4-2.3 0.2-4.5 0.3-6.6 0.3H483c-4.6 0-8.6 0-13.2-0.6-0.5-0.1-1.4-0.3-2.4-0.3l-7.3-1.2-0.3-0.1c-4.3-0.9-8.7-1.9-13.6-3.1-3.7-1.2-7.3-2.2-10.8-3.6-0.8-0.6-1.8-1-2.9-1.2h-0.1l-2.7-1.3zM803.7 689H539.5c-14.9 0-27.5 12.6-27.5 27.5 0 15.1 12.3 27.5 27.5 27.5h264.3c14.9 0 27.5-12.6 27.5-27.5-0.1-14.9-12.7-27.5-27.6-27.5z" p-id="28027" fill="#3f6bf4"></path><path d="M539.5 645.4h264.3c15.6 0 28.8-13.2 28.8-28.8 0-15.9-12.9-28.8-28.8-28.8H539.5c-15.9 0-28.8 12.9-28.8 28.8 0 15.8 12.9 28.8 28.8 28.8zM803.7 785.8H539.5c-14.9 0-27.5 12.6-27.5 27.5 0 15.1 12.3 27.5 27.5 27.5h264.3c14.9 0 27.5-12.6 27.5-27.5-0.1-15-12.7-27.5-27.6-27.5z" p-id="28028" fill="#3f6bf4"></path></svg>