<?xml version="1.0" standalone="no"?><!DOCTYPE svg PUBLIC "-//W3C//DTD SVG 1.1//EN" "http://www.w3.org/Graphics/SVG/1.1/DTD/svg11.dtd"><svg t="1563331442415" class="icon" viewBox="0 0 1024 1024" version="1.1" xmlns="http://www.w3.org/2000/svg" p-id="31945" xmlns:xlink="http://www.w3.org/1999/xlink" width="200" height="200"><defs><style type="text/css"></style></defs><path d="M929.1 723c-15.9-16.2-38.4-31.1-66.8-44.3-53-24.6-125.3-42.8-209-52.6h-0.2c-5.2-0.6-10.4-1.2-15.7-1.7v-9.8c36.2-30.8 123.4-127.4 123.4-343.8 0-61.6-29.6-116.7-83.3-155.2-45.8-32.9-106.9-51.7-167.7-51.7-60.7 0-121.5 18.9-166.8 51.8-52.9 38.5-82.1 93.5-82.1 155.1 0 216.4 87.2 313 123.4 343.8v9.8c-8.2 0.8-16.4 1.8-24.4 2.8h-0.2c-81.5 10.3-151.7 28.5-203 52.9-77.6 36.7-93.9 79.4-93.9 108.6 0 112 225.4 170.7 448 170.7s448-58.6 448-170.7c0.1-16.2-5.1-40.7-29.7-65.7z m-54.7 94.5c-17.8 14-45.3 27.5-79.5 38.9-75.4 25.1-176.3 39-284 39-107.8 0-208.6-13.8-284-39-34.2-11.4-61.7-24.8-79.5-38.9-13.2-10.4-20.5-20.7-20.5-28.8 0-11.4 15-30.8 57.3-50.8 44.7-21.2 109.9-37.9 183.8-47.2h0.2c16.4-2.1 33.4-3.8 50.5-5.1 17.6-1.4 30.8-16.8 29.4-34.4v-0.3c0.2-1.4 0.3-2.9 0.3-4.4v-47.7c0-11.1-5.8-21.5-15.3-27.3-0.2-0.1-25.4-16.7-51.1-58.7-47.1-77-57-174.1-57-242 0-51.9 30.3-84.9 55.7-103.3 34.7-25.2 81.8-39.6 129.2-39.6 47.7 0 95.2 14.5 130.4 39.7 25.8 18.5 56.6 51.5 56.6 103.2 0 53.3-5.8 102.4-17.2 145.9-9 34.4-21.6 65.4-37.4 92.1-25.6 43.4-51.5 61.4-53.7 62.8-9.7 5.7-15.1 15.9-15.1 27.2v47.7c0 14.2 9.3 26.3 22.1 30.4 5.2 5.3 12.2 8.9 20.2 9.6 10.1 0.9 20.3 2 30.1 3.1h0.2c75.9 9 143.1 25.7 189.4 47.1 43.9 20.3 59.5 40.1 59.5 51.9-0.1 8.2-7.4 18.5-20.6 28.9z" p-id="31946" fill="#3f6bf4"></path></svg>