<?xml version="1.0" standalone="no"?><!DOCTYPE svg PUBLIC "-//W3C//DTD SVG 1.1//EN" "http://www.w3.org/Graphics/SVG/1.1/DTD/svg11.dtd"><svg t="1560824844518" class="icon" style="" viewBox="0 0 1024 1024" version="1.1" xmlns="http://www.w3.org/2000/svg" p-id="8055" xmlns:xlink="http://www.w3.org/1999/xlink" width="200" height="200"><defs><style type="text/css"></style></defs><path d="M717.3 417c0-113.2-91.8-204.8-204.8-204.8-113.1 0-204.8 91.8-204.8 204.8-84.8 0-153.6 68.8-153.6 153.6s68.8 153.6 153.6 153.6v51.2c-104.2 0.1-191.8-77.7-203.8-181C91.8 491 159.1 395 260.4 371.2c22.3-121.7 128.3-210 251.9-210s229.6 88.3 251.9 210c100.9 24.2 167.9 120 155.9 223.1s-99.1 180.9-203 181.2v-51.2c84.8 0 153.6-68.8 153.6-153.6S802.2 417 717.3 417zM307.5 724.2h102.4v51.2H307.5v-51.2z m307.4 0h102.4v51.2H614.9v-51.2z m0 0" p-id="8056" fill="#ff7e00"></path><path d="M533.8 555.6v266.5c-0.1 14.1-11.5 25.5-25.7 25.8-14.1-0.1-25.5-11.6-25.7-25.8V555.6l-28.9 28.9c-10.1 9.8-26.1 9.7-36-0.1-4.9-4.8-7.6-11.2-7.6-18 0-6.8 2.7-13.2 7.5-18l72.8-72.8c4.8-4.8 11.3-7.4 18-7.4 6.7-0.1 13.2 2.5 17.9 7.2l72.8 72.8c9.8 10.1 9.7 26.1-0.1 36-4.8 4.9-11.2 7.6-18 7.6-6.8 0-13.2-2.7-18-7.5l-29-28.7z m0 0" p-id="8057" fill="#ff7e00"></path></svg>