<?xml version="1.0" standalone="no"?><!DOCTYPE svg PUBLIC "-//W3C//DTD SVG 1.1//EN" "http://www.w3.org/Graphics/SVG/1.1/DTD/svg11.dtd"><svg t="1562835453741" class="icon" viewBox="0 0 1024 1024" version="1.1" xmlns="http://www.w3.org/2000/svg" p-id="27683" xmlns:xlink="http://www.w3.org/1999/xlink" width="200" height="200"><defs><style type="text/css"></style></defs><path d="M617.5 515.3h-92.9V358c0-16.7-13.5-30.2-30.2-30.2s-30.2 13.5-30.2 30.2v183.8c-0.2 1.2-0.2 2.4-0.2 3.7 0 16.7 13.5 30.2 30.2 30.2h123.3c16.7 0 30.2-13.5 30.2-30.2s-13.5-30.2-30.2-30.2z m-19-329.3c-180-48.2-365 58.6-413.2 238.6-48.2 180 58.6 365 238.6 413.2 180 48.2 365-58.6 413.2-238.6 48.2-180-58.6-365-238.6-413.2z m166.7 393.9c-37.6 140.3-181.8 223.5-322.1 185.9C302.8 728.2 219.6 584 257.2 443.7c37.6-140.3 181.8-223.5 322.1-186 140.2 37.7 223.5 181.9 185.9 322.2z m0 0" p-id="27684" fill="#3f6bf4"></path></svg>