<?xml version="1.0" standalone="no"?><!DOCTYPE svg PUBLIC "-//W3C//DTD SVG 1.1//EN" "http://www.w3.org/Graphics/SVG/1.1/DTD/svg11.dtd"><svg t="1562642086170" class="icon" viewBox="0 0 1024 1024" version="1.1" xmlns="http://www.w3.org/2000/svg" p-id="5652" xmlns:xlink="http://www.w3.org/1999/xlink" width="200" height="200"><defs><style type="text/css"></style></defs><path d="M255.7 102h512c84.8 0 153.6 68.8 153.6 153.6v512c0 84.8-68.8 153.6-153.6 153.6h-512c-84.8 0-153.6-68.8-153.6-153.6v-512c0-84.8 68.8-153.6 153.6-153.6z m136.5 550.4l24.8 25c24.8 25 68.2 18.8 93-6.2l235.7-231.5c24.8-25 31-68.8 6.2-93.8s-68.2-18.8-93.1 6.2L460.4 552.2 355 445.9c-18.6-25.1-55.8-25.1-80.6 0-24.8 18.8-24.8 56.3 0 81.3l117.8 125.2z" p-id="5653" fill="#3f6bf4"></path></svg>