<?xml version="1.0" standalone="no"?><!DOCTYPE svg PUBLIC "-//W3C//DTD SVG 1.1//EN" "http://www.w3.org/Graphics/SVG/1.1/DTD/svg11.dtd"><svg t="1562651167677" class="icon" viewBox="0 0 1024 1024" version="1.1" xmlns="http://www.w3.org/2000/svg" p-id="17720" xmlns:xlink="http://www.w3.org/1999/xlink" width="200" height="200"><defs><style type="text/css"></style></defs><path d="M491 960.5H128c-35.3 0-64-28.7-64-64v-768c0-35.3 28.7-64 64-64h768c35.3 0 64 28.7 64 64V489c0 17.7-14.3 32-32 32s-32-14.3-32-32V128.5H128v768h363c17.7 0 32 14.3 32 32s-14.3 32-32 32z" p-id="17721" fill="#ffffff"></path><path d="M709.5 958.5c-6.3 0-12.6-1.8-18.1-5.7L548 854c-14.6-10-18.2-30-8.2-44.5s30-18.2 44.5-8.2l117.9 81.3 198.2-267.3c10.5-14.2 30.6-17.2 44.8-6.6 14.2 10.5 17.2 30.6 6.6 44.8L735.2 945.6c-6.2 8.4-15.9 12.9-25.7 12.9zM784.1 322H399c-17.7 0-32-14.3-32-32s14.3-32 32-32h385.1c17.7 0 32 14.3 32 32s-14.3 32-32 32z" p-id="17722" fill="#ffffff"></path><path d="M253 290m-44 0a44 44 0 1 0 88 0 44 44 0 1 0-88 0Z" p-id="17723" fill="#ffffff"></path><path d="M784.1 517H399c-17.7 0-32-14.3-32-32s14.3-32 32-32h385.1c17.7 0 32 14.3 32 32s-14.3 32-32 32z" p-id="17724" fill="#ffffff"></path><path d="M253 485m-44 0a44 44 0 1 0 88 0 44 44 0 1 0-88 0Z" p-id="17725" fill="#ffffff"></path><path d="M617 709H399c-17.7 0-32-14.3-32-32s14.3-32 32-32h218c17.7 0 32 14.3 32 32s-14.3 32-32 32z" p-id="17726" fill="#ffffff"></path><path d="M253 677m-44 0a44 44 0 1 0 88 0 44 44 0 1 0-88 0Z" p-id="17727" fill="#ffffff"></path></svg>