<?xml version="1.0" standalone="no"?><!DOCTYPE svg PUBLIC "-//W3C//DTD SVG 1.1//EN" "http://www.w3.org/Graphics/SVG/1.1/DTD/svg11.dtd"><svg t="1562640806141" class="icon" viewBox="0 0 1024 1024" version="1.1" xmlns="http://www.w3.org/2000/svg" p-id="5495" xmlns:xlink="http://www.w3.org/1999/xlink" width="200" height="200"><defs><style type="text/css"></style></defs><path d="M872.6 512.4c0-199.2-162.1-361.4-361.4-361.4-199.2 0-361.4 162.1-361.4 361.4 0 199.2 162.1 361.4 361.4 361.4 199.3 0 361.4-162.1 361.4-361.4zM718.9 720.2c-55.6 55.6-129.4 86.3-207.7 86.3-78.3 0-152.1-30.6-207.7-86.3-55.6-55.6-86.3-129.4-86.3-207.7s30.6-152.1 86.3-207.7c55.6-55.6 129.4-86.3 207.7-86.3 78.3 0 152.1 30.6 207.7 86.3 55.6 55.6 86.3 129.4 86.3 207.7s-30.6 152-86.3 207.7z" p-id="5496" fill="#3f6bf4"></path><path d="M539.7 657.1c-0.4 0.4-1 0.9-1.2 1.2l-0.4 0.7-2.9 2.6-0.5 0.4c-1.9 1.3-4.2 2.5-6.5 3.7-0.8 0.6-1.6 0.8-2.1 1-0.1 0-0.3 0.1-0.4 0.2-1.4 0.6-2.1 0.8-3.4 0.8-0.4 0.1-0.8 0.2-1.3 0.3-0.3 0.1-0.8 0.3-1.4 0.4-1.8 0.5-3.2 0.5-4.6 0.5h-7.3c-1.1 0-2-0.2-2.7-0.3-0.5-0.1-0.7-0.1-0.9-0.1-0.6 0-1.8 0-3.2-0.7-0.2 0-0.3-0.1-0.5-0.1h-0.1c-0.7-0.1-1.3-0.3-1.6-0.4-1.6-0.1-2.7-0.7-3.5-1.3-2.9-1.1-5.6-2.7-7.6-4.5-0.2-0.2-0.4-0.3-0.6-0.5-0.6-0.4-1.4-1.1-2.2-2-0.8-0.8-1.8-1.7-2.8-3L299.2 451.5c-6.2-6.9-9-15.6-8-24.5 1-9.2 5.9-17.4 13.9-23.1 15.7-11.3 38.8-8.9 51.4 5.2l153.9 172.8 153.9-172.8c7.3-8.1 18-12.4 28.7-12.4 8 0 16 2.3 22.6 7.1 8.5 5.8 13.9 14.1 15.1 23.2 1.2 8.8-1.6 17.5-7.9 24.8L540.1 656.7l-0.4 0.4z" p-id="5497" fill="#3f6bf4"></path></svg>