<?xml version="1.0" standalone="no"?><!DOCTYPE svg PUBLIC "-//W3C//DTD SVG 1.1//EN" "http://www.w3.org/Graphics/SVG/1.1/DTD/svg11.dtd"><svg t="1562658753237" class="icon" viewBox="0 0 1024 1024" version="1.1" xmlns="http://www.w3.org/2000/svg" p-id="26998" xmlns:xlink="http://www.w3.org/1999/xlink" width="200" height="200"><defs><style type="text/css"></style></defs><path d="M586.56 836.8l-136.32-190.93333333c-11.41333333-16-10.24-37.76 2.88-52.37333334l182.50666667-203.94666666c2.98666667-3.30666667 2.88-8.42666667-0.32-11.52-3.2-3.2-8.21333333-3.30666667-11.52-0.32L419.73333333 560.21333333c-14.61333333 13.12-36.37333333 14.29333333-52.37333333 2.88L176.53333333 426.77333333c-6.4-4.58666667-9.70666667-12.37333333-8.53333333-20.26666666 1.17333333-7.78666667 6.72-14.29333333 14.18666667-16.74666667L804.37333333 182.4c7.57333333-2.56 15.89333333-0.53333333 21.44 5.12 5.65333333 5.65333333 7.57333333 13.97333333 5.01333334 21.44L623.46666667 831.14666667c-2.45333333 7.46666667-8.96 13.01333333-16.74666667 14.18666666-7.78666667 1.17333333-15.68-2.13333333-20.16-8.53333333z m0 0" p-id="26999" fill="#3f6bf4"></path></svg>