<?xml version="1.0" standalone="no"?><!DOCTYPE svg PUBLIC "-//W3C//DTD SVG 1.1//EN" "http://www.w3.org/Graphics/SVG/1.1/DTD/svg11.dtd"><svg t="1563947419780" class="icon" viewBox="0 0 1024 1024" version="1.1" xmlns="http://www.w3.org/2000/svg" p-id="11815" xmlns:xlink="http://www.w3.org/1999/xlink" width="16" height="16"><defs><style type="text/css"></style></defs><path d="M511.999354 55.632162c246.639192 0 446.655354 200.016162 446.655354 446.655354 0 246.639192-200.016162 446.654061-446.655354 446.654061-246.639192 0-446.654061-200.016162-446.654061-446.654061C65.345293 255.648323 265.361455 55.632162 511.999354 55.632162L511.999354 55.632162zM511.999354 295.601131c-114.129455 0-206.685091 92.555636-206.685091 206.686384s92.555636 206.685091 206.685091 206.685091c114.129455 0 206.686384-92.555636 206.686384-206.685091S626.130101 295.601131 511.999354 295.601131L511.999354 295.601131zM511.999354 113.168808c-214.866747 0-389.118707 174.25196-389.118707 389.118707S297.132606 891.406222 511.999354 891.406222c214.86804 0 389.118707-174.25196 389.118707-389.118707S726.867394 113.168808 511.999354 113.168808z" p-id="11816" fill="#3F6BF4"></path></svg>