<?xml version="1.0" standalone="no"?><!DOCTYPE svg PUBLIC "-//W3C//DTD SVG 1.1//EN" "http://www.w3.org/Graphics/SVG/1.1/DTD/svg11.dtd"><svg t="1562653351986" class="icon" viewBox="0 0 1024 1024" version="1.1" xmlns="http://www.w3.org/2000/svg" p-id="17890" xmlns:xlink="http://www.w3.org/1999/xlink" width="200" height="200"><defs><style type="text/css"></style></defs><path d="M448.1 831.4c-51.8 0-102.1-10.2-149.5-30.2-45.7-19.3-86.8-47-122-82.3-35.3-35.3-62.9-76.3-82.3-122-20-47.4-30.2-97.7-30.2-149.5s10.2-102.1 30.2-149.5c19.3-45.7 47-86.8 82.3-122 35.3-35.3 76.3-62.9 122-82.3 47.4-20 97.7-30.2 149.5-30.2s102.1 10.2 149.5 30.2c45.7 19.3 86.8 47 122 82.3 35.3 35.3 62.9 76.3 82.3 122 20 47.4 30.2 97.7 30.2 149.5S822 549.5 802 596.8c-19.3 45.7-47 86.8-82.3 122-35.3 35.3-76.3 62.9-122 82.3-47.4 20.1-97.7 30.3-149.6 30.3z m0-704c-85.5 0-165.8 33.3-226.3 93.7-60.4 60.4-93.7 140.8-93.7 226.3s33.3 165.8 93.7 226.3c60.4 60.4 140.8 93.7 226.3 93.7s165.8-33.3 226.3-93.7c60.4-60.4 93.7-140.8 93.7-226.3s-33.3-165.8-93.7-226.3c-60.4-60.5-140.8-93.7-226.3-93.7z" p-id="17891" fill="#3f6bf4"></path><path d="M927.7 959.7c-8.2 0-16.4-3.1-22.6-9.4l-231-231c-12.5-12.5-12.5-32.8 0-45.3s32.8-12.5 45.3 0l231.1 231.1c12.5 12.5 12.5 32.8 0 45.3-6.4 6.2-14.6 9.3-22.8 9.3z" p-id="17892" fill="#3f6bf4"></path></svg>