<?xml version="1.0" standalone="no"?><!DOCTYPE svg PUBLIC "-//W3C//DTD SVG 1.1//EN" "http://www.w3.org/Graphics/SVG/1.1/DTD/svg11.dtd"><svg t="1562643197531" class="icon" viewBox="0 0 1024 1024" version="1.1" xmlns="http://www.w3.org/2000/svg" p-id="6332" xmlns:xlink="http://www.w3.org/1999/xlink" width="200" height="200"><defs><style type="text/css"></style></defs><path d="M845.5 435c-3.9-11.8-14.6-20-28.8-22.1L627 385.7l-84.9-170.1c-6.3-12.7-17.6-20.3-30.1-20.3s-23.8 7.6-30.1 20.3L397 385.7 207.3 413c-14.2 2-24.9 10.3-28.8 22.1-3.9 11.8 0 24.7 10.2 34.6L326 602.1l-32.4 187c-1.9 11.2 0.5 21.5 7 29 5.8 6.8 14.4 10.7 23.7 10.7 6 0 12.1-1.6 18.1-4.7L512 735.8l169.7 88.3c15.2 7.9 32.2 5.2 41.8-6 6.4-7.5 8.9-17.8 6.9-29l-32.4-187 137.3-132.4c10.3-10 14.1-22.9 10.2-34.7zM655 576.5c-5.7 5.5-8.3 13.5-7 21.3l29.4 169.8-154.1-80.2c-7.1-3.7-15.5-3.7-22.6 0l-154.1 80.2L376 597.7c1.4-7.8-1.3-15.7-7-21.3L244.4 456.2l172.3-24.8c7.9-1.1 14.7-6.1 18.3-13.1l77-154.5 77.1 154.5c3.5 7.1 10.4 12 18.3 13.1l172.3 24.8L655 576.5z m0 0" p-id="6333" fill="#999999"></path></svg>