<?xml version="1.0" standalone="no"?><!DOCTYPE svg PUBLIC "-//W3C//DTD SVG 1.1//EN" "http://www.w3.org/Graphics/SVG/1.1/DTD/svg11.dtd"><svg t="1563947183609" class="icon" viewBox="0 0 1024 1024" version="1.1" xmlns="http://www.w3.org/2000/svg" p-id="11653" xmlns:xlink="http://www.w3.org/1999/xlink" width="16" height="16"><defs><style type="text/css"></style></defs><path d="M768 128 256 128C185.6 128 128 185.6 128 256l0 512c0 70.4 57.6 128 128 128l512 0c70.4 0 128-57.6 128-128L896 256C896 185.6 838.4 128 768 128zM832 768c0 35.2-28.8 64-64 64L256 832c-35.2 0-64-28.8-64-64L192 256c0-35.2 28.8-64 64-64l512 0c35.2 0 64 28.8 64 64L832 768z" p-id="11654" fill="#666666"></path></svg>