<?xml version="1.0" standalone="no"?><!DOCTYPE svg PUBLIC "-//W3C//DTD SVG 1.1//EN" "http://www.w3.org/Graphics/SVG/1.1/DTD/svg11.dtd"><svg t="1560852029624" class="icon" style="" viewBox="0 0 1024 1024" version="1.1" xmlns="http://www.w3.org/2000/svg" p-id="10992" xmlns:xlink="http://www.w3.org/1999/xlink" width="200" height="200"><defs><style type="text/css"></style></defs><path d="M512.2 704.4c-105.9 0-192-86.1-192-192s86.1-192 192-192 192 86.1 192 192-86.2 192-192 192z m0-320c-70.6 0-128 57.4-128 128s57.4 128 128 128 128-57.4 128-128-57.5-128-128-128z" p-id="10993" fill="#808080"></path><path d="M568.7 959.6H455.4c-24.3 0-44-19.7-44-44V881c-30.4-8.3-59.5-20.2-86.9-35.8l-24.7 24.7c-17.2 17.2-45.1 17.2-62.2 0l-80.2-80.2c-17.2-17.2-17.2-45.1 0-62.2l24-24c-16.2-27.9-28.7-57.6-37.3-88.7h-35.5c-24.3 0-44-19.7-44-44V457.4c0-24.3 19.7-44 44-44h34.5c8.5-31.8 21-62.2 37.5-90.9l-25.4-25.4c-17.2-17.2-17.2-45.1 0-62.2l80.2-80.2c17.2-17.2 45.1-17.2 62.2 0l25.6 25.6c27.8-15.9 57.3-28.1 88.2-36.5v-36.2c0-24.3 19.7-44 44-44h113.4c24.3 0 44 19.7 44 44v36.1c31.7 8.6 62 21.3 90.5 37.8l24.7-24.7c17.2-17.2 45.1-17.2 62.2 0l80.2 80.2c17.2 17.2 17.2 45.1 0 62.2L845 324.6c15.9 28 28 57.7 36.3 88.8h34.3c24.3 0 44 19.7 44 44v113.4c0 24.3-19.7 44-44 44h-35.2c-8.4 30.3-20.5 59.2-36.1 86.6l24.7 24.7c8.3 8.3 12.9 19.3 12.9 31.1s-4.6 22.8-12.9 31.1l-80.2 80.2c-17.2 17.2-45.1 17.2-62.2 0L702 843.9c-28.1 16.2-58 28.6-89.2 37v34.6c-0.1 24.3-19.8 44.1-44.1 44.1z m-93.3-64h73.4v-66.2l25.8-5.1c41-8.2 79.5-24.1 114.4-47.5l21.8-14.6 46.9 46.9 51.9-51.9-47-47 14.5-21.8c22.8-34.2 38.5-71.9 46.7-112l5.2-25.6h66.6v-73.4h-66.2l-5-25.9c-7.9-40.8-23.6-79.2-46.6-114l-14.4-21.8 47.5-47.5-51.9-52-47.2 47.2-21.8-14.7c-35.1-23.7-74-40-115.4-48.2l-25.8-5.1v-67.7h-73.4v67.8l-25.7 5.1c-40.7 8.1-78.8 23.9-113.4 47L314.4 262l-47.9-47.9-51.9 51.9 47.8 47.8-14.6 21.8c-23.6 35.3-39.7 74.3-47.8 115.8l-5 25.9h-66.4v73.4h66.8l5.2 25.6c8.3 40.8 24.4 79.1 47.9 113.8l14.8 21.9-46.5 46.5 51.9 51.9 46.9-46.9 21.8 14.4c34.3 22.7 72.1 38.2 112.4 46.2l25.7 5.1v66.4z" p-id="10994" fill="#808080"></path></svg>
