<?xml version="1.0" standalone="no"?><!DOCTYPE svg PUBLIC "-//W3C//DTD SVG 1.1//EN" "http://www.w3.org/Graphics/SVG/1.1/DTD/svg11.dtd"><svg t="1562724388788" class="icon" viewBox="0 0 1024 1024" version="1.1" xmlns="http://www.w3.org/2000/svg" p-id="27514" xmlns:xlink="http://www.w3.org/1999/xlink" width="200" height="200"><defs><style type="text/css"></style></defs><path d="M517 150.3c-73.7 0-133.8 58.6-136.3 132H208.6c-19.2 0-34.6 15.5-34.6 34.6s15.5 34.6 34.6 34.6h38.3v388.9c0 72.9 49.5 132.6 110.6 132.6h311.6c61.1 0 110.6-59.3 110.6-132.6V351.9h34.6c19.2 0 34.6-15.5 34.6-34.6s-15.5-34.6-34.6-34.6H652.9c-2.2-73.8-62.2-132.4-135.9-132.4z m-71.2 131.9c2.6-37.6 33.3-66.9 71.2-66.9 37.9 0 68.6 29.3 70.8 66.9h-142z m-88.2 525.9c-21.7 0-45.5-27.8-45.5-67.6V352h402.6v388.9c0 39.8-23.9 67.6-45.5 67.6H357.6v-0.4z" p-id="27515" fill="#ffffff"></path><path d="M404.2 724.6c15.9 0 29-15.9 29-35.7V484.7c0-19.8-13-35.8-29-35.8-15.9 0-29 15.9-29 35.8v204.2c0 19.8 12.7 35.7 29 35.7z m104.8 0c15.9 0 29-15.9 29-35.7V484.7c0-19.8-13-35.8-29-35.8-15.9 0-29 15.9-29 35.8v204.2c0.1 19.8 13.1 35.7 29 35.7z m110.2 0c15.9 0 29-15.9 29-35.7V484.7c0-19.8-13-35.8-29-35.8-15.9 0-29 15.9-29 35.8v204.2c0.2 19.8 12.8 35.7 29 35.7z" p-id="27516" fill="#ffffff"></path></svg>
