<?xml version="1.0" standalone="no"?><!DOCTYPE svg PUBLIC "-//W3C//DTD SVG 1.1//EN" "http://www.w3.org/Graphics/SVG/1.1/DTD/svg11.dtd"><svg t="1560759970436" class="icon" style="" viewBox="0 0 1024 1024" version="1.1" xmlns="http://www.w3.org/2000/svg" p-id="7741" xmlns:xlink="http://www.w3.org/1999/xlink" width="200" height="200"><defs><style type="text/css"></style></defs><path d="M242.5 358.1v307.6h307.6V358.1H242.5z m221.1 230.7h-57.7l-17.1-34.2-21.3 34.2H329l42.8-68.4L329 435h57.7l17.1 34.2 21.3-34.2h38.5l-42.8 68.4 42.8 85.4z m317.2-307.6v499.9H319.4V685h38.5v57.7h384.5V281.2H357.8v57.6h-38.5v-96.1h461.4v38.5zM569.4 473.4H704v38.5H569.4v-38.5z m0-76.8H704V435H569.4v-38.4z m0 153.8H704v38.5H569.4v-38.5z m0 0" p-id="7742" fill="#1afa2a"></path></svg>
