<?xml version="1.0" standalone="no"?><!DOCTYPE svg PUBLIC "-//W3C//DTD SVG 1.1//EN" "http://www.w3.org/Graphics/SVG/1.1/DTD/svg11.dtd"><svg t="1560755019579" class="icon" style="" viewBox="0 0 1024 1024" version="1.1" xmlns="http://www.w3.org/2000/svg" p-id="6141" xmlns:xlink="http://www.w3.org/1999/xlink" width="200" height="200"><defs><style type="text/css"></style></defs><path d="M511.2 204.4c169.8 0 307.5 137.7 307.5 307.5S681 819.4 511.2 819.4 203.7 681.7 203.7 511.9c0.1-169.8 137.7-307.5 307.5-307.5m0-51.2c-198.1 0-358.7 160.6-358.7 358.7s160.6 358.7 358.7 358.7S869.9 710 869.9 511.9 709.3 153.2 511.2 153.2z m0 0" p-id="6142" fill="#333333"></path><path d="M449.9 358.6c-25 0-45.4 20.3-45.4 45.4v216.2c-0.1 16.2 8.5 31.2 22.5 39.4 14 8.1 31.4 8.1 45.4-0.2l186.8-107.9c14-8.1 22.6-23 22.6-39.2 0-16.2-8.6-31.1-22.6-39.2L472.4 365.2c-6.8-4.1-14.6-6.4-22.5-6.6z" p-id="6143" fill="#333333"></path></svg>