<?xml version="1.0" standalone="no"?><!DOCTYPE svg PUBLIC "-//W3C//DTD SVG 1.1//EN" "http://www.w3.org/Graphics/SVG/1.1/DTD/svg11.dtd"><svg t="1562722307386" class="icon" viewBox="0 0 1024 1024" version="1.1" xmlns="http://www.w3.org/2000/svg" p-id="27168" xmlns:xlink="http://www.w3.org/1999/xlink" width="200" height="200"><defs><style type="text/css"></style></defs><path d="M512 611.42053925a99.42053925 99.42053925 0 1 1 99.42053925-99.42053925 99.42053925 99.42053925 0 0 1-99.42053925 99.42053925z m0-264.70718577A165.90802489 165.90802489 0 1 0 677.90802489 512 165.90802489 165.90802489 0 0 0 512 346.09197511zM941.9938323 512A492.13166933 492.13166933 0 0 1 512 810.26161778a492.7530477 492.7530477 0 0 1-429.37245392-293.91196919v-8.69929718A492.13166933 492.13166933 0 0 1 512 213.73838222a491.51029097 491.51029097 0 0 1 429.37245392 293.91196919V512zM1009.1026963 512a45.36062103 45.36062103 0 0 0 0-11.80618903 62.13783703 62.13783703 0 0 0 0-11.18481067v-4.3496486a559.24053333 559.24053333 0 0 0-497.1026963-336.78707673 559.24053333 559.24053333 0 0 0-490.26753422 333.68018488 31.69029689 31.69029689 0 0 0 0 6.2137837 23.61237808 23.61237808 0 0 0 0 8.07791882v11.80618904a29.82616178 29.82616178 0 0 0 0 6.2137837v8.07791881a50.331648 50.331648 0 0 0 0 7.45654045H14.8973037a32.93305363 32.93305363 0 0 0 0 6.21378371v4.34964859a559.24053333 559.24053333 0 0 0 497.1026963 336.16569836 559.24053333 559.24053333 0 0 0 489.64615585-333.05880651 36.03994548 36.03994548 0 0 0 0-7.45654044 27.96202667 27.96202667 0 0 0 0-8.69929719A67.108864 67.108864 0 0 0 1009.1026963 512z" fill="#ffffff" p-id="27169"></path></svg>
