<?xml version="1.0" standalone="no"?><!DOCTYPE svg PUBLIC "-//W3C//DTD SVG 1.1//EN" "http://www.w3.org/Graphics/SVG/1.1/DTD/svg11.dtd"><svg t="1560755845155" class="icon" style="" viewBox="0 0 1024 1024" version="1.1" xmlns="http://www.w3.org/2000/svg" p-id="6779" xmlns:xlink="http://www.w3.org/1999/xlink" width="200" height="200"><defs><style type="text/css"></style></defs><path d="M743.2 353.9H280.8c-20.8 0-37.6-16.9-37.6-37.6 0-20.8 16.8-37.6 37.6-37.6h462.4c20.8 0 37.6 16.9 37.6 37.6 0 20.7-16.8 37.6-37.6 37.6z m0 0M743.2 549.3H280.8c-20.8 0-37.6-16.8-37.6-37.6S260 474 280.8 474h462.4c20.8 0 37.6 16.9 37.6 37.6s-16.8 37.7-37.6 37.7z m0 0M743.2 744.7H280.8c-20.8 0-37.6-16.8-37.6-37.6s16.8-37.6 37.6-37.6h462.4c20.8 0 37.6 16.9 37.6 37.6s-16.8 37.6-37.6 37.6z m0 0" p-id="6780" fill="#ffffff"></path></svg>