<?xml version="1.0" standalone="no"?><!DOCTYPE svg PUBLIC "-//W3C//DTD SVG 1.1//EN" "http://www.w3.org/Graphics/SVG/1.1/DTD/svg11.dtd"><svg t="1560755785690" class="icon" style="" viewBox="0 0 1024 1024" version="1.1" xmlns="http://www.w3.org/2000/svg" p-id="6569" xmlns:xlink="http://www.w3.org/1999/xlink" width="200" height="200"><defs><style type="text/css"></style></defs><path d="M424.3 237.2H306.8c-38.3 0-69.5 31.2-69.5 69.5v117.5c0 38.3 31.2 69.5 69.5 69.5h117.5c38.3 0 69.5-31.2 69.5-69.5V306.6c-0.1-38.3-31.2-69.4-69.5-69.4z m8.9 186.9c0 4.8-4.1 8.9-8.9 8.9H306.8c-4.8 0-8.9-4.1-8.9-8.9V306.6c0-4.8 4.1-8.9 8.9-8.9h117.5c4.8 0 8.9 4.1 8.9 8.9v117.5zM424.3 530.5H306.8c-38.3 0-69.5 31.2-69.5 69.5v117.6c0 38.3 31.2 69.5 69.5 69.5h117.5c38.3 0 69.5-31.2 69.5-69.6V599.9c-0.1-38.3-31.2-69.4-69.5-69.4z m8.9 186.9c0 4.9-4 8.9-8.9 8.9H306.8c-4.9 0-8.9-4-8.9-8.9V599.9c0-4.9 4-8.9 8.9-8.9h117.5c4.9 0 8.9 4 8.9 8.9v117.5zM717.6 530.5H600.1c-38.3 0-69.5 31.2-69.5 69.5v117.6c0 38.3 31.2 69.5 69.5 69.5h117.5c38.3 0 69.5-31.2 69.5-69.6V599.9c0-38.3-31.2-69.4-69.5-69.4z m8.9 186.9c0 4.9-4 8.9-8.9 8.9H600.1c-4.9 0-8.9-4-8.9-8.9V599.9c0-4.9 4-8.9 8.9-8.9h117.5c4.9 0 8.9 4 8.9 8.9v117.5zM717.6 237.2H600.1c-38.3 0-69.5 31.2-69.5 69.5v117.5c0 38.3 31.2 69.5 69.5 69.5h117.5c38.3 0 69.5-31.2 69.5-69.5V306.6c0-38.3-31.2-69.4-69.5-69.4z m8.9 186.9c0 4.8-4.1 8.9-8.9 8.9H600.1c-4.8 0-8.9-4.1-8.9-8.9V306.6c0-4.8 4.1-8.9 8.9-8.9h117.5c4.8 0 8.9 4.1 8.9 8.9v117.5z" p-id="6570" fill="#333333"></path></svg>