<?xml version="1.0" standalone="no"?><!DOCTYPE svg PUBLIC "-//W3C//DTD SVG 1.1//EN" "http://www.w3.org/Graphics/SVG/1.1/DTD/svg11.dtd"><svg t="1560754773937" class="icon" style="" viewBox="0 0 1024 1024" version="1.1" xmlns="http://www.w3.org/2000/svg" p-id="5483" xmlns:xlink="http://www.w3.org/1999/xlink" width="200" height="200"><defs><style type="text/css"></style></defs><path d="M414.5 737.8c12.9 0 23.4 10.8 23.4 24.2 0 13.4-10.5 24.2-23.4 24.2H261.4c-12.9 0-23.4-10.8-23.4-24.2V262.2c0-13.4 10.4-24.2 23.4-24.2h440c12.9 0 23.4 10.8 23.4 24.2V390c0 13.4-10.5 24.2-23.4 24.2-12.9 0-23.4-10.8-23.4-24.2V286.4H284.7v451.4h129.8z m86.4-123.7c0 68.2 53.5 123.7 119.4 123.7 65.8 0 119.3-55.5 119.3-123.7s-53.5-123.7-119.3-123.7c-65.9 0-119.4 55.4-119.4 123.7zM748.5 722l22 22.9c9.2 9.4 9.2 24.8 0 34.2-4.3 4.5-10.3 7.1-16.5 7.1-6 0-12-2.4-16.5-7.1l-22.9-23.8c-26.8 19.4-59.3 30.8-94.4 30.8-91.6 0-166.1-77.2-166.1-172.1 0-94.9 74.5-172.1 166.1-172.1s166 77.2 166 172.1c0.1 41.1-14.4 78.4-37.7 108zM358.3 349h238.4c12.9 0 23.4 10.8 23.4 24.2 0 13.4-10.4 24.2-23.4 24.2H358.3c-12.9 0-23.4-10.8-23.4-24.2 0-13.4 10.5-24.2 23.4-24.2z m56.2 141.4c12.9 0 23.4 10.8 23.4 24.2 0 13.4-10.5 24.2-23.4 24.2h-56.2c-12.9 0-23.4-10.8-23.4-24.2 0-13.4 10.5-24.2 23.4-24.2h56.2zM399 680.2h-40.7c-12.9 0-23.4-10.8-23.4-24.2 0-13.4 10.5-24.2 23.4-24.2H399c12.9 0 23.4 10.8 23.4 24.2-0.1 13.3-10.5 24.2-23.4 24.2z m0 0" p-id="5484" fill="#ffffff"></path></svg>