<?xml version="1.0" standalone="no"?><!DOCTYPE svg PUBLIC "-//W3C//DTD SVG 1.1//EN" "http://www.w3.org/Graphics/SVG/1.1/DTD/svg11.dtd"><svg t="1560754308014" class="icon" style="" viewBox="0 0 1024 1024" version="1.1" xmlns="http://www.w3.org/2000/svg" p-id="5339" xmlns:xlink="http://www.w3.org/1999/xlink" width="200" height="200"><defs><style type="text/css"></style></defs><path d="M719.6 724.2c-12.7 0-23-10.3-23-23s10.3-23 23-23c60.2 0 109-48.8 109-109s-48.8-109-109-109c-4.7 0.1-9.3 0.4-14 1.1l-23 2.9-2.8-23c-9.3-79.8-75.2-141-155.4-144.3-80.2-3.3-151 52.2-166.8 130.9l-4.8 21-21.3-2.9c-43.2-5.9-86.1 12.8-111.2 48.4s-28.2 82.3-8.1 121 60.1 62.9 103.7 62.8c12.7 0 23 10.3 23 23s-10.3 23-23 23c-89.9 0-162.7-72.9-162.7-162.7 0-89.9 72.9-162.7 162.7-162.7h1.8c28-90.5 113.3-150.9 207.9-147.3 94.7 3.6 175.1 70.3 196.1 162.7 83.7 3.2 149.7 72.3 149.1 156-0.6 83.8-67.7 151.9-151.4 153.8v0.3z m0 0" p-id="5340" fill="#ffffff"></path><path d="M620.5 647c-6.1 0-12-2.4-16.3-6.8l-90.2-90-90.2 90.1c-9.1 8.5-23.2 8.2-32-0.6s-9-22.9-0.6-32l95.8-95.6c15.1-14.4 38.9-14.4 54 0l95.8 95.8c6.6 6.6 8.5 16.5 5 25.1-3.6 8.6-11.9 14.2-21.2 14.2v-0.2z m0 0" p-id="5341" fill="#ffffff"></path><path d="M514 775c-6.1 0-12-2.4-16.3-6.7-4.3-4.3-6.7-10.2-6.7-16.3V543.7c0-12.7 10.3-23 23-23s23 10.3 23 23v208.2c0 12.8-10.3 23.1-23 23.1z m0 0" p-id="5342" fill="#ffffff"></path></svg>